<?xml version="1.0" encoding="UTF-8"?>
<svg id="LOGO" xmlns="http://www.w3.org/2000/svg" xmlns:xlink="http://www.w3.org/1999/xlink" viewBox="0 0 1193.25 811.61">
  <defs>
    <style>
      .cls-1 {
        fill: #f6f6f6;
      }

      .cls-2 {
        fill: #1d1d1b;
      }

      .cls-3 {
        fill: #f8f8f8;
      }

      .cls-4, .cls-5 {
        fill: #fff;
      }

      .cls-6 {
        fill: #fbfbfb;
      }

      .cls-7 {
        fill: #403c90;
      }

      .cls-8 {
        fill: #060606;
      }

      .cls-5, .cls-9 {
        stroke: #1d1d1b;
        stroke-miterlimit: 10;
        stroke-width: 3.11px;
      }

      .cls-9 {
        fill: none;
      }

      .cls-10 {
        fill: #4e358c;
      }

      .cls-11 {
        fill: #090909;
      }

      .cls-12 {
        fill: #ededed;
      }

      .cls-13 {
        fill: #010101;
      }

      .cls-14 {
        fill: #302865;
      }

      .cls-15 {
        fill: #050505;
      }
    </style>
    <filter id="drop-shadow-1" filterUnits="userSpaceOnUse">
      <feOffset dx="0" dy="2.83"/>
      <feGaussianBlur result="blur" stdDeviation="2.83"/>
      <feFlood flood-color="#575755" flood-opacity=".5"/>
      <feComposite in2="blur" operator="in"/>
      <feComposite in="SourceGraphic"/>
    </filter>
  </defs>
  <path class="cls-12" d="M629.45,545.5c-7.86,1.72-19.01-.15-29.46-3.97-16.08-5.89-30.85-9.07-47.63.04-11.27,6.11-24.16,1.23-33.14-8.24-9.18-9.68-10.97-22.26-5.21-33.8,4.89-9.8,2.42-15.98-2.78-24.55-47.75-78.59,6.83-188.86,98.5-201.34,55.91-7.62,130.83,17.19,157.29,88.23,12.12,32.54,13.77,66.27-2.6,97.29-27.55,52.24-70.01,84.24-134.97,86.34Z"/>
  <circle class="cls-4" cx="632.85" cy="405.42" r="116.45"/>
  <g>
    <polygon class="cls-10" points="625.84 465.92 602.51 488.52 591.56 477.9 614.88 455.31 625.84 465.92"/>
    <polygon class="cls-7" points="647.92 444.53 636.79 455.31 671.07 488.52 682.2 477.76 647.92 444.53"/>
    <polyline class="cls-10" points="631.28 355.98 597 322.77 586.03 333.4 620.31 366.6"/>
    <polygon class="cls-7" points="653.19 355.98 642.23 345.37 665.56 322.77 676.51 333.4 653.19 355.98"/>
    <polygon class="cls-10" points="663.39 408.32 620.31 366.6 642.23 366.6 685.3 408.32 658.87 433.93 647.92 423.3 663.39 408.32"/>
    <polygon class="cls-7" points="609.36 377.21 620.31 387.84 604.84 402.82 647.92 444.53 625.68 444.53 582.77 402.98 609.36 377.21"/>
  </g>
  <path class="cls-12" d="M119.27,309.16c7.46,2.67,14.81,5.47,21.65,9.66,25.92,15.88,35.86,50.39,22.01,77.4-3.28,6.39-6.98,12.1-4.04,20.3,2.32,6.48-1.65,12.41-7.36,16.36-5.52,3.82-11.8,3.72-16.7-.14-5.72-4.51-10.98-3.07-17.19-2.17-26.85,3.88-51.18-.61-69.04-23.4-18.87-24.06-16.37-58.15,5.07-80,7.15-7.29,15.28-12.11,24.76-15.18,1.86-.6,12.71-3.25,16.61-3.02,10.26-.86,12.78-.92,24.22.18Z"/>
  <circle class="cls-4" cx="100.86" cy="370.29" r="52.45"/>
  <path class="cls-14" d="M114.78,357.64c1.74-1.83,3.31-3.86,5.25-5.46,3.04-2.52,6.47-2.68,9.41.06,3.01,2.81,3.14,6.41.33,9.29-10.34,10.62-20.81,21.12-31.44,31.46-3.03,2.95-6.84,2.89-10.01-.11-4.54-4.3-8.97-8.73-13.25-13.28-3.01-3.2-3-6.75.24-9.83,3.06-2.9,6.29-2.32,9.33.26.53.45.99.98,1.49,1.45q7.2,6.81,14.38.53c.95-.1,1.53-.58,1.65-1.55,0,0-.17.16-.17.16.95-.08,1.47-.59,1.55-1.55,0,0-.15.16-.15.16.95-.08,1.47-.59,1.54-1.54,0,0-.15.15-.15.15.95-.08,1.47-.59,1.54-1.54,0,0-.15.15-.15.15.95-.07,1.47-.59,1.54-1.54,0,0-.15.15-.15.15.95-.07,1.47-.59,1.54-1.54,0,0-.15.15-.15.15.95-.07,1.47-.59,1.54-1.54,0,0-.15.15-.15.15.95-.08,1.47-.59,1.54-1.54,0,0-.15.15-.15.15.95-.08,1.47-.59,1.54-1.55,0,0-.14.18-.14.18,1.06-.18,1.5-.9,1.64-1.89Z"/>
  <path class="cls-7" d="M197.79,797.24c.07-12.66.18-25.31.19-37.97.02-49.34,0-98.68-.01-148.02,0-7.58.96-8.55,8.61-8.56,16.95,0,33.91.14,50.86-.07,10.45-.13,18.17,4.24,23.59,12.94,2.35,3.77,4.48,7.67,6.75,11.48,4.59,7.69,11.58,11.72,20.34,11.32,41.58-1.94,82.32-.59,126.7-1.01,8.08-.08,8.08,0,8.08,7.93,0,49.21,0,97.7,0,146.91,0,2.04.12,4.09.18,6.13-.06,1.11-.11,2.23-.18,3.34-.22,3.79,1.33,9.68-5.96,4.54-1.26-.89-3.63-.24-5.49-.24-73.72,0-147.43-.02-221.15.05-3.09,0-6.26-.9-9.37,1.1-1.66,1.07-3.01-.48-3-2.64.01-2.41-.11-4.83-.17-7.24Z"/>
  <path class="cls-2" d="M18.7,787.39c2.87,1.32,5.54,2.82,7.26,5.68,1.21,2.01,3.28,2.88,5.57,3.17,1.86,1.67,4.28.78,6.38,1.37,2.64.74,4.3,2.44,4.38,5.09.09,2.85-1.83,4.18-4.53,4.69-11.13,2.11-22.2.1-33.19-1.01-5.94-.61-4.8-5.93-3.69-10.23,1.41-3.11,2.36-6.56,6.01-7.99,3.82-1.95,7.82-1.24,11.79-.77Z"/>
  <path class="cls-2" d="M150.16,797.05c.98-3.23,2.3-6.23,5.65-7.74,4.03-1.08,8.14-1.38,12.29-1.18,6.05,1.89,9.81,7.81,16.14,9.2.96.87,1.99,1.68,2.87,2.62,3.17,3.4,2.58,6.29-1.91,7.22-11.11,2.31-22.18.34-33.22-1.07-1.55-.2-1.98-1.51-1.95-2.93.04-2.04.09-4.08.14-6.12Z"/>
  <path class="cls-2" d="M1059.73,791.3c2.94.05,4.15,1.71,4.45,4.48.22,1.99.77,3.95,1.17,5.92-.3,4.7-2.88,6.78-7.52,6.92-5.7.17-11.39.63-17.08.96-3.37,0-6.74,0-10.11,0-3.64-1.92-4.21-4.6-1.97-7.98,4.67-3.66,11.22-3.63,15.56-7.94,4.98-1.97,10.21-2.33,15.49-2.35Z"/>
  <path class="cls-7" d="M945.6,374.78c1.71-16.22,3.31-31.73,4.99-47.23,1.67-15.49,3.42-30.98,5.13-46.47,1.77-16.04,3.54-32.08,5.27-48.13.9-8.3,1.93-16.6,2.5-24.92.59-8.57,3.81-12.31,12.52-11.91,15.97.72,31.69,3.54,46.98,8.09,9.47,2.82,15.05,9.69,18.03,19.46,4.05,13.26,10.3,21.65,29.86,23.65,24.74,2.53,49.4,5.8,74.1,8.74,12.9,1.54,25.79,3.15,38.7,4.56,4.97.54,6.23,2.46,5.42,7.67-2.18,14.1-3.53,28.34-5.2,42.52-2.15,18.24-4.3,36.48-6.41,54.72-1.26,10.87-2.6,21.74-3.61,32.64-.68,7.35-1.15,7.75-8.32,6.98-19.01-2.07-38.05-3.85-57.06-5.89-19.02-2.04-38-4.32-57.02-6.36-19.2-2.06-38.43-3.92-57.64-5.93-13.85-1.44-27.71-2.78-41.51-4.59-4.22-.55-8.38-2.4-6.73-7.6Z"/>
  <path class="cls-10" d="M168.09,788.13c-3.91,2.34-8.04,2.39-12.29,1.18-18.36-17.14-30.21-37.47-31.71-63.15-.72-12.35-2.92-24.03-10.58-34.78-10.72-15.06-19.81-31.27-29.58-47-.57-.92-.86-2.05-2.71-2.69-3.93,12.36-7.92,24.68-11.76,37.05-1.8,5.8-3.23,11.7-5.5,17.37-2.26,5.63-5.18,10.93-10.18,14.25-4.75,3.16-6.42,7.53-7.99,12.53-6.02,19.19-15.69,37.01-21.53,56.29-.98,3.23-3.43,5.66-5.56,8.21-3.82,1.93-7.84.87-11.79.77-4.95-10.71-2.9-21.82-1.71-32.82,1.67-15.57,8.77-29.62,12.98-44.48,2.56-9.04,7.96-17.08,9.16-26.56.67-5.32,1.7-10.67,1.7-16,0-17.13-.19-34.28,1.35-51.33,1.87-20.68,5.9-40.93,16.47-59.26,3.29-5.71,5.57-6.22,9.58-1.26,13.48,16.66,31.51,24.64,52.06,28,2.91.48,5.94.36,8.92.32,5.01-.07,7.44,1.8,9.56,6.97,9.09,22.11,14.94,45.08,20.18,68.29,4.04,17.87,7.16,35.77,8.69,54.1,1.65,19.85,7.04,39.16,12.37,58.36,1.47,5.27,2.3,10.45-.12,15.65Z"/>
  <path class="cls-10" d="M365.79,67.36c10.06.03,18.5,3.31,24.07,12.15,5.68,9.02,5.89,9.71,13.35,9.15.91-.07,16.42,0,17.35,0,18.45,0,32.83.03,51.27-.12,4.31-.04,5.86,1.36,5.83,5.8-.16,26.45-.16,52.89,0,79.34.03,4.51-1.56,5.66-5.89,5.63-18.43-.13-36.87.1-55.31.2-2.46,1.83-5.34,1.38-8.08,1.39-13.95.06-27.91.03-41.86.03-6.7,0-13.37.13-20.06.74-6.69.61-8.92-2.84-6.68-9.41.02-31.61.04-63.22.06-94.82-3.14-8.79-.12-12.44,10.18-12.31,5.18,1.32,10.52,1.48,15.78,2.25Z"/>
  <path class="cls-5" d="M1059.73,791.3c-4.85,2.86-10.16,2.67-15.49,2.35-1.94-20.91-5.59-41.56-9.7-62.12-3.56-17.84-6.41-35.79-9.44-53.72-2.6-15.39-5.3-30.77-7.47-46.23-1.72-12.24-2.83-24.57-3.94-36.88-.37-4.11,3.11-5.97,6.98-4.32,21.23,9,42.53,11.5,63.86.3,3.4-1.78,5.49-.82,6.79,2.62,4.73,12.55,8.4,25.32,9.93,38.75.95,8.35.92,16.64.88,24.98-.02,4.82,3.61,7.02,6.93,9.32,3.39,2.34,7.5,2.85,11.34,4.04,11.73,3.62,20.54,12.06,30.54,18.52,5.43,3.51,10.74,7.26,14.93,12.32,4.92,4.39,4.58,9.77,2.91,15.4-3.99,4.02-8.19.18-11.93-.28-24.47-2.99-47.93-10.34-71.29-17.97-7.51-2.45-13.02-7.2-18.06-13.45.86,6.78,1.82,13.54,2.56,20.33,1.64,14.96,1.42,29.92.03,44.9-.77,8.26-1.59,16.45-3.37,24.58-1.32,6.02-3.42,11.56-7.01,16.54Z"/>
  <path class="cls-7" d="M339.77,172.25c.63,8.68.74,8.26,9.76,7.47,9.05-.8,18.21-.48,27.32-.47,13.2,0,26.41.17,39.61.27,5.36,6.36,12.75,10.71,17.38,17.83,10.22,15.74,20.57,31.37,27.17,49.14,4.31,11.59,10.61,22.19,17.48,32.46,1.22,1.82,2.43,3.71,3.28,5.72,2.67,6.29.25,11.76-6.29,13.95-5.14,1.72-9.25,2.15-14.77-1.95-20.14-14.99-37.53-32.5-52.43-52.52-4.46-6-6.34-13.56-8.97-20.58-2.34-6.26-5.19-7.91-11.47-5.49-10.96,4.22-22.62,12.6-34.36,12.84-14.27.28-27.14,2.24-40.01,1.68-7.55-.33-15.03,1.16-22.66,1.12-9.37-.06-12.71-4.13-14.6-13.3-2.63-12.7.29-24.42,5.24-35.94,1.23-2.85,2.86-5.63,2.65-8.87-.26-4.04,2.06-4.84,5.3-4.26,16.75,3.03,33.54,2.64,50.37.91Z"/>
  <path class="cls-2" d="M350.14,66.49q-9.74.05-10.3,10.93c-3.51-1.53-7.35-2.12-10.69-4.23-5.08-3.2-5.28-8.04-.14-11,3.12-1.8,8.11-5.84,8.17-9.16.22-10.7-4.98-19.61-11.38-29.36-1.82,3.16-3.38,5.81-4.88,8.49-3.54,6.29-9.08,10.49-15.68,12.57-3.47,1.09-3.54,1.95-2.57,4.79,2.27,6.69,3.71,13.4,1.8,20.63-.79,2.99-1.87,3.54-4.66,4.08-7.52,1.45-15.47,1.96-21.31,8.15-2.26,2.4-3.75,5-4.38,8.15-2.05,10.3-3.94,20.64-6.18,30.9-.48,2.21.69,6-3.18,6.19-3.2.15-4.66-2.85-5.89-5.25-6.07-11.85-5.18-23.65,1.53-34.82,3.71-6.17,7.91-12.25,12.89-17.39,7.41-7.65,8.55-16.84,8.7-26.56.15-9.78-1.38-19.74,3.07-29.04,6.92-14.46,14.98-16.39,29.43-13.27,2.73.59,5.06,1.14,7.97.35,9.98-2.72,14.46,5.11,18.96,11.34,7.53,10.42,12.03,22.34,14.3,35.04,1.07,5.98,2.59,11.91,2.18,18.08-2.52,1.4-5.15.64-7.76.41Z"/>
  <path class="cls-2" d="M230.02,463.13c-7.72,5.99-15.94,8.25-25.24,5.51-2.93-.87-4.6.54-5.77,3.47-1.21,3.02-1.29,6.51-3.88,9.03-4.16,4.05-8.12,7.82-14.82,6.76-4.55-.72-9.29-.12-13.93-.38-5.25-.29-6.6-3.02-3.7-7.29,1.79-2.64,4.26-4.55,6.91-6.37,9.32-6.39,12.63-15.24,10.11-26.38-1.08-4.77-1.31-9.59-.03-14.28,2.77-10.21,9.14-12.66,21.98-13.74,2.87-.24,5.61.15,8.61-.92,5.69-2.01,10.85,2.43,11.09,9.61.13,4.05,1.64,5.28,5.29,6.18,7.4,1.81,12.09,6.72,14.05,14.19,2.65,10.1,2.92,19.68-5.13,27.85-1.9,1.93-4.09,3.2-6.4,2.03-2.52-1.27-1.13-4.06-.83-6.07.41-2.84,2.8-5.28,1.69-9.21Z"/>
  <path class="cls-2" d="M1053.2,402.71c15.09-1.12,26.48,6.72,30.59,22.13,2.86,10.72,8.73,19.62,20.92,22.08,2.05.41,4.11,1.53,4.09,3.91-.02,2.21-2.29,2.47-3.92,3.34-9.01,4.8-18.1,9.12-28.43,10.53-3.93.54-7.78.39-11.65.43-3.01.04-4.25-1.86-4.14-4.74.16-4.07.35-8.01,2.53-11.79,2.82-4.89,1.17-9.18-3.97-11.53-5.92-2.71-8.39-8.05-10.88-13.49-.97-2.11-1.68-5.05-4.55-5.09-3.2-.04-4.11,3.16-4.88,5.41-2.52,7.36-4.89,14.79-2.86,22.81.82,3.22,1.84,5.88,5.17,7.3,2.38,1.01,3.02,2.91,2.1,5.51-.94,2.66-2.95,2.68-4.98,2.3-3.99-.74-7.97-1.6-11.88-2.69-3.92-1.09-5.49-3.79-3.95-7.68,2.19-5.53,1.77-10.8.7-16.69-1.76-9.69,3.56-17.54,10.16-24.14,5.69-5.68,12.43-9.42,19.82-7.92Z"/>
  <path class="cls-7" d="M371.23,300.24c3.19-17.23,3.76-35.14,8.14-52.48,1.66-6.57,2.76-13.28,4.25-19.89.72-3.18,2.02-6.04,5.97-6.24,3.89-.2,5.68,2.58,6.95,5.44,3.42,7.68,5.37,15.94,10.19,23.1,2,2.97-.05,7.16-1.09,10.18-4.72,13.85-8.59,27.95-13.29,41.79-.85,2.5-1.14,6.42-4.95,6.56-5.33.19-10.76-.12-15.33-3.42-1.54-1.11-.6-3.12-.85-5.02Z"/>
  <path class="cls-2" d="M1082.12,506.78c-.45-4.9,2.07-8.22,4.18-11.68,5.44-8.94,13.83-14.32,22.99-18.61,3.09-1.45,5.51.94,4.22,4.54-4.83,13.49-12.57,24.79-25.88,31.29-4.26,2.08-5.41.7-5.51-5.54Z"/>
  <path class="cls-2" d="M1168.8,716.64c-.65-5.19-.35-10.57-2.91-15.4,1.23-1.12,2.4-2.31,3.71-3.34,5.59-4.4,8.3-3.74,11.61,2.62,3.34,6.42,6.83,12.77,10.12,19.22,1.51,2.97,3.37,6.48.19,9.17-3.6,3.05-7.27.94-9.83-1.92-3.76-4.2-9.56-5.71-12.88-10.34Z"/>
  <path class="cls-2" d="M387.28,355.01c-3.91.23-6.75-1.65-8.64-4.48-5.31-7.98-12.07-14.47-19.36-20.58-3.99-3.34-3.73-8.27-.17-11.62,2.17-2.04,4.11-2.07,5.23.7,4.06,10.01,11.48,16.59,20.83,21.46,3.84,2,5.73,5.88,7,9.74,1.45,4.42-1.74,4.9-4.89,4.79Z"/>
  <path class="cls-2" d="M483.45,320.39c-2.74-.07-5.77.68-8.48-1.15-2.64-1.79-3.59-4.37-2.7-7.28.97-3.17,3.66-1.79,5.67-1.43,9.23,1.63,18.37,2.45,27.3-1.49,3.64-1.61,7.44-.32,10.97.32,3.28.6,1.78,2.9.12,4.31-4.27,3.65-9.49,4.95-14.91,5.45-5.91.55-11.85.84-17.97,1.26Z"/>
  <line class="cls-9" x1="1067.97" y1="686.99" x2="1054.54" y2="624.87"/>
  <path d="M697.4,809.99c-2.62-.12-5.24-.03-7.86-.06"/>
  <path d="M665.57,590.9c65.96.68,131.92,1.36,197.89,2.04,27.39.28,54.79.42,82.17.98,5.34.11,6.06-1.09,4.69-6.03-24.84-89.08-49.53-178.21-74.26-267.33-5.71-20.58-11.64-41.1-17.07-61.75-1.45-5.53-3.99-7.23-9.65-7.34-91.66-1.77-183.32-3.8-274.98-5.71-36.33-.76-72.65-1.37-108.98-2.08-1.68-.03-4.44,1.06-4.55-1.62-.12-2.71,2.74-1.93,4.37-1.92,18.23.16,36.47.33,54.7.7,51.61,1.03,103.21,2.12,154.81,3.25,59.05,1.29,118.11,2.76,177.16,3.84,6.05.11,8.58,2.47,10.06,7.83,31.12,112.59,62.32,225.16,93.54,337.72,1.11,4.01,1.4,5.14-4.02,4.37-8.78-1.25-17.84-.59-26.79-.69-122.42-1.32-244.84-2.65-367.26-3.96-58.32-.62-116.65-1.27-174.97-1.76-5.27-.04-7.81-2.47-9.07-7.13-15.92-58.79-31.86-117.58-47.76-176.38-13.23-48.94-27.93-102.2-41.1-151.15-.53-1.96-.99-3.98-1.17-5.99-.32-3.58,1.27-5.44,5.08-5.69,26.75-1.8,56.16-1.93,82.91-3.84,2.58-.18,5.13-.71,7.71-.97,1.38-.14,2.9.29,3.12,1.73.29,1.92-1.39,2.47-2.92,2.57-5.57.38-11.15.58-16.72.97-22.11,1.56-46.87,1.5-68.98,2.89-4.71.29-7.28.98-5.71,6.59,4.13,14.85,9.42,34.09,13.44,48.97,24.8,91.79,49.64,183.57,74.45,275.36,2.26,8.35,2.21,8.37,10.93,8.46,92.98.96,185.96,1.92,278.94,2.87,0,.06,0,.12,0,.18Z"/>
  <path d="M267.14,241.67c5.35,15.43,8.89,31.38,13.12,47.12,27.92,104.01,55.67,208.06,83.44,312.1,2.6,9.73,1.92,8.28,11.21,8.32,115.52.6,231.04,1.12,346.56,1.74,80.12.43,160.23.97,240.35,1.5,9.87.06,10.45.42,8.32-11.21-2.2-12.02-6.14-23.71-9.27-35.56-27.39-103.77-54.76-207.55-82.16-311.33-.57-2.15-1.42-4.23-1.92-6.4-.31-1.36-.93-3.25,1.02-3.8,2.06-.59,2.38,1.44,2.74,2.76,1.41,5.19,2.61,10.44,3.98,15.65,29.7,112.38,59.4,224.76,89.12,337.14.38,1.43.64,2.95,1.34,4.22,3.38,6.16-.01,12.1-7.1,12.06-49.93-.3-99.87-.69-149.8-.95-111.98-.6-223.96-1.13-335.94-1.71-35.4-.18-70.8-.4-106.2-.59-1.49,0-3.02-.21-4.46.07-5.7,1.11-9.82-1.04-10.68-6.35-2.49-15.43-7.42-30.24-11.43-45.27-27.92-104.77-56.04-209.49-84.05-314.24-.45-1.7-1.47-3.44-.52-5.32.79-.65,1.56-.65,2.32.05Z"/>
  <path class="cls-13" d="M267.14,237.09c-.77-.02-1.54-.04-2.32-.05-3.23-2.29-6.84-1.13-10.18-.73-3.16.37-3.06,2.87-2.36,5.66,5.19,20.56,10.21,41.17,15.33,61.75,27.79,111.66,53.98,216.12,81.77,327.78.14.55.16,1.12.3,1.67.35,1.39,1.49,3.21-.64,3.79-2.39.65-2.47-1.75-2.87-3.24-1.23-4.53-.66-1.9-1.79-6.45-31.4-126.43-62.8-252.86-94.2-379.29-3.51-14.12-2.89-15.01,11.36-15.66,38.15-1.73,76.31-3.47,114.46-5.19,1.11-.05,2.24-.05,3.34.06.99.1,1.79.63,1.81,1.75.01,1.23-.99,1.49-1.91,1.58-2.97.29-5.94.62-8.91.74-31.09,1.27-62.18,2.44-93.27,3.81-3.33.15-7.1-1.01-9.93,2.02Z"/>
  <path d="M1015.69,698.38c-4.65-14.1-8.26-28.54-12.31-42.83-38.86-137.23-77.76-274.45-116.45-411.74-1.52-5.39-3.99-7.06-9.22-7.13-23.48-.31-46.95-.96-70.42-1.38-96.33-1.69-192.65-3.33-288.98-5.01-18.44-.32-36.89-.71-55.33-1.2-2.4-.06-5.96-2.19-6.28,1.44-.23,2.55,3.67,2.12,6.01,2.23.19,0,.37,0,.56,0,52.91.98,105.83,1.98,158.74,2.95,84.03,1.54,168.05,3.14,252.09,4.43,6.48.1,8.76,2.26,10.46,8.28,42.12,149.43,84.46,298.8,126.76,448.18q1.9,6.71-5.03,6.71c-184.68-.18-369.37-.36-554.05-.54-2.05,0-4.1-.08-6.15-.02-1.14.03-2.32.34-2.26,1.83.05,1.43,1.15,1.76,2.34,1.81,1.12.05,2.24,0,3.35,0,32.24.04,64.48.08,96.72.11,152.07.13,304.14.26,456.22.42,1.64,0,3.56-.78,5.38,1.18-11.55,6.93-23.91,8.6-36.6,8.59-143.69-.08-287.37-.21-431.06-.34-28.32-.03-61.49-.17-89.82-.18-2.65,0-7.18-1.93-7.35,1.75-.14,3.13,4.48,1.95,7.1,1.96,29.82.05,64.48.05,94.3-.01,2.67,0,4.16.33,3.82,3.63-.58,5.55-.72,11.14-1.04,16.72-.91,15.98-2.18,31.95-2.62,47.95-.34,12.37,6.01,18.41,18.22,19.03,5.57.28,11.14.79,16.69,1.36l141.07,1.32c-.09-6.13-3.17-11.65-10.3-12.79-5.69-.91-11.47-1.24-17.13-2.24-5.81-1.03-9.47-5.24-9.28-10.86.69-20.1,1.65-40.18,2.38-60.28.1-2.9,1.11-3.84,3.98-3.76,6.89.17,13.79.07,20.69.08,87.78.09,175.55.2,263.33.25,13.08,0,25.41-2.88,36.68-9.87,4.79-2.97,6.82-5.86,4.78-12.04ZM555.95,802.37c-3.75-.54-5.61-4.05-6.85-7.48-1.36-3.75-1.32-7.67-1.07-11.59,1.14-18.57,2.27-37.15,3.43-55.72.1-1.67.4-3.33.53-5,.14-1.74.78-2.77,2.76-2.61,2.33.19,1.94,1.85,1.86,3.28-.47,8.73-1.02,17.47-1.47,26.2-.64,12.27-1.36,24.53-1.76,36.81-.27,8.24,3.68,12.26,11.83,13.11,4.06.42,8.07,1.25,12.11,1.9,1.86.3,3.72.63,4.11,3.58-8.6-.79-17.09-1.28-25.47-2.48ZM711.26,802.62c2.72.02,5.14.53,6.61,4.17-9.47,0-18.36.13-27.24-.02-32.93-.58-65.86-1.26-98.79-1.9-.37,0-.75.04-1.12-.02-1.7-.26-4.57.74-4.52-1.79.06-2.72,2.95-1.35,4.48-1.34,40.19.24,80.38.59,120.58.91ZM691.23,798.44c-20.07,0-39.18.03-58.29-.01-13.03-.03-26.07-.45-39.09-.15-9.94.23-19.64-1.23-29.39-2.59-5.3-.74-7.88-3.57-7.62-9.12.99-21.18,2.26-42.34,3.24-63.52.19-4.12,2.92-3.07,5.09-3.07,27.93-.03,55.85,0,83.78.01,9.68,0,19.36.13,29.04-.05,3.47-.06,4.79.55,4.58,4.57-1.02,19.13-1.56,38.28-2.41,57.42-.35,7.87,3.12,13.15,11.07,16.5Z"/>
  <path class="cls-11" d="M616.63,808.48h29.26c0,.19,0,.38,0,.56h-29.43c.06-.19.11-.38.17-.56Z"/>
  <path class="cls-13" d="M257.48,600.12c-6.23-4.4-12.44-8.86-18.92-12.86-7.6-4.69-12.86-11.09-16.28-19.26-3.23-7.73-5.4-15.81-8.24-23.66-4.09-11.27-2.28-23.84-8.87-34.73-2.93-4.83,3.11-11.34,9.41-11.81,9.61-.72,19.95-11.48,18.9-20.09-.55-4.48-1.53-8.81,1-13,.5-.83.47-1.88-.35-2.53-.81-.64-1.85-.48-2.58.13-5.9,4.96-12.96,5.42-20.09,4.85-7.08-.56-11.92,2.15-14.76,8.51-3.97,8.91-11.06,11.7-20.36,11.14-24.21-1.47-46.34,5-66.77,17.89-19.35,12.21-35.45,28.34-52.64,43.16-3.21,2.77-6.12,4.15-1.36,9.53,13.44,15.19,29.36,25.8,49.03,30.1,9.61,2.1,19.31,2.02,27.83-5.36,6.96-6.03,12.99-12.63,17.99-20.29,1.63,1.19,1.47,2.78,1.63,4.22,2.42,22.35,10.08,42.39,24.62,59.91,8.03,9.67,12.83,21.26,15.45,33.67,1.37,6.47,4.09,12.39,8.84,17.12,2.33,2.32,4.89,5.27,8.64,3.22,3.62-1.98,2.99-5.62,2.35-8.97-1.29-6.74-3.29-13.4-2.86-20.37.33-5.33-1.33-9.9-4.98-13.73-5.52-5.8-8.97-12.73-11.33-20.27-3-9.57-5.99-19.14-8.94-28.72-2.83-9.19-3.02-18.67-3.22-28.17-.1-4.77,3.92-6.31,6.91-7.7,1.81-.85,2.47,2.98,3.31,4.8,3.42,7.44,7.39,14.59,11.25,21.8,6.44,12.01,15.84,20.54,28.44,25.55,1.81.72,4.33,3.47,5.67.52,1.07-2.36-2.3-2.8-4-3.5-12.63-5.17-21.84-13.91-27.95-26.06-2.34-4.65-5.06-9.11-7.32-13.79-6.83-14.16-6.53-14.71,7.35-22.88,2.85-1.68,3.86-1.63,4.87,1.75,2.92,9.78,5.84,19.57,9.78,29.02,3.71,8.89,9.48,15.86,17.65,21.01,6.45,4.07,12.67,8.5,19.01,12.74,1.3.87,2.81,3.02,4.22,1.25,1.71-2.16-.99-3.22-2.31-4.15ZM189.48,488.66c4.24-1.96,6.87-5.54,9.22-9.39q5.24-8.57,14.89-8.69c2.41,0,4.83.01,7.24,0,2.76-.02,7.32-2.81,7.75-.85.93,4.25,3.1,9.2.31,13.53-5.97,9.29-12.47,13.59-23.25,9.65-1.65-.6-3.8-2.31-4.9-.18-1.04,2,1.57,2.48,2.95,3.18,1.38.7,2.18,1.42.94,2.85-2,2.32-2.17,7.07-4.99,7.32-3.8.34-7.17-2.38-9.24-6.1-1.07-1.93-2.5-3.6-3.11-5.83-.7-2.53-.34-4.32,2.19-5.49ZM202.41,640.45c1.94,2.35,3.24,5.1,3.09,8.17-.39,7.9,1.33,15.5,2.86,23.14.32,1.59,1.3,3.64-.51,4.57-1.98,1.02-3.36-.91-4.58-2.21-3.78-4.02-6.38-8.84-7.43-14.15-3.01-15.33-9.76-28.98-19.6-40.76-13.26-15.88-17.97-34.63-20.81-54.31-1.03-7.15-3.22-14.13-3.2-21.44,0-1.55-.73-3.65,1.91-3.78,7.44-.37,14.82-1.09,21.37-2.96,4.11-.59,3.14,1.86,2.87,3.47-1.81,11.06-2.73,22.3-.65,33.25,4.49,23.63,8.62,47.55,24.65,67.01ZM206.64,532.12c-1.78,2.93-5.21,4.2-8.09,5.66-3.1,1.58-4.91,7.47-10.22,3.38-1.22-.94-1.9,1.39-1.67,2.62.77,4.01-1.6,5.66-5.88,7.38,1.6-7.11-1.3-14.68,6.23-19.16,1.16-.69,1.53-2.23.4-3.4-1.05-1.1-1.99-.05-2.92.48-9.86,5.69-20.67,7.11-31.75,6.55-4.18-.21-5.34.9-4.55,4.93,3.5,17.68-5.49,28.88-18.84,38.88-8.79,6.59-17.6,6.33-26.86,3.97-16.26-4.15-29.83-13.07-41.4-25.14-3.41-3.56-3.93-6.29.44-9.93,15.44-12.84,29.63-27.17,46.42-38.37,20.55-13.71,42.88-21.07,67.83-19.57,4.48.27,7.3,1.29,8.77,6.42,1.84,6.41,6.47,11.02,13.33,13.02,5.86,1.7,11.9,17.1,8.75,22.29Z"/>
  <path class="cls-13" d="M1151.82,406.68c-1.25-2.5-3.65-.69-5.27.23-3.98,2.26-7.37,2.35-10.14-1.8-.4-.61-1.02-1.09-1.57-1.58-1.19-1.04-2.78-1.93-3.98-.68-1.6,1.68.41,2.44,1.47,3.29,2.2,1.76,3.37,3.57,1.87,6.6-12.25,24.81-28.79,44.36-58.3,48.35-4.17.56-9.94,3.09-12.12.37-2.3-2.88,1.29-7.87,3.15-11.72,3.75-7.8,2.36-11.41-5.88-14.61-5.75-2.23-9.88-5.74-11.56-11.86-.72-2.6-2.11-4.87-5.16-5.15-2.88-.26-4.44,1.83-5.61,3.94-4.13,7.46-6.35,15.46-5.99,24.04.18,4.22,2,7.62,6.05,9.24,2.49,1,3.92,2.7,2.92,5.03-1.15,2.69-3.28.28-4.69-.11-21.31-5.78-45.5-35.98-45.51-65.26,0-1.71.7-2.77,1.89-3.78,1.01-.85,2.11-1.89.88-3.25-1.01-1.11-2.11-.22-2.92.47-4.64,3.93-9.01,3.86-13.24-.66-.86-.92-2.1-2.08-3.29-.71-1.09,1.26-.04,2.53.98,3.33,2.05,1.61,2.26,3.63,1.91,5.99-.63,4.23-1.31,8.46-1.62,12.72-1.19,16.06-.57,31.78,10.48,44.95,4.19,4.99,8.78,9.64,13.17,14.45,6.11,6.7,9.92,14.53,9.97,23.64.06,11.84,1.71,23.31,6.09,34.32,4.07,10.22,4.26,20.58,1.87,31.21-2.12,9.42-4.4,18.87-3,28.69.29,2.07.34,4.46,2.59,5.12,12.62,3.74,25.13,8.13,38.59,7.8,11.38-.35,22.54-2.11,33.7-4.37,5.82-1.18,7.51-4.48,8.01-9.55.78-7.99-1.27-15.52-3.65-22.97-4.57-14.35-9.16-28.72-10.29-43.85-1.28-17.18,2.27-27.1,18.79-35.57,4.63-2.37,9.28-4.73,13.84-7.24,12.6-6.93,20.57-17.37,23.89-31.43,2.26-9.59,4.17-19.24,5.61-28.99.33-2.24.54-4.46,2.95-5.61,1.41-.68,4.1-1.11,3.13-3.04ZM1036.19,442.54c.58-5.7,2.01-11.99,5.11-17.81.59-1.11,1.1-2.65,2.55-2.67,1.58-.02,1.87,1.68,2.24,2.79,2.43,7.32,7.61,11.68,14.74,13.99,4.36,1.41,5.45,4.15,3.41,8.13-2.48,4.82-4.08,9.84-5.04,15.22-.95,5.34-4.89,8.54-10.04,10.19-1.58.51-2.9.37-4.05-.87-2.49-2.71.46-13.72,3.99-14.85,1.37-.44,3.53-.49,3.19-2.37-.43-2.39-2.67-1.22-4.19-1.17-9.02.33-12.1-2.17-11.92-10.58ZM1142.21,415.19c-2.56,13.66-3.86,27.66-10.11,40.37-3.21,6.52-8.41,11.33-14.5,15.14-3.46,2.16-6.99,4.35-10.74,5.89-13.43,5.53-23.1,14.6-28.24,28.36-1.37,3.67-3.82,6.77-6.64,9.53-1.12,1.09-2.28,2.43-.71,3.75,1.32,1.11,2.36-.36,3.23-1.24,1.54-1.54,2.99-3.18,5.08-5.43.51,18.31,5.49,34.65,10.54,50.99,1.2,3.89,2.27,7.84,3.14,11.83,1.77,8.09,1.68,8.12-5.81,11.88-6.22,3.12-12.83,5.11-19.71,5.67-13.35,1.08-26.77,2.08-39.94-1.54-9.84-2.7-10.2-3.45-9.79-13.35.32-7.67,2.48-15.02,3.82-22.51,1.71-9.58,1.52-18.97-2.36-27.92-4.63-10.68-5.03-21.99-5.78-33.27-.75-11.45-5.14-21.19-13.16-29.36-1.7-1.73-3.23-3.63-5.02-5.24-13.77-12.46-17.48-28.42-16.11-46.13.37-4.81,1.17-9.6,1.59-14.41.21-2.46.99-3.49,3.73-3.48,2.84.01,3.37,1.2,3.53,3.62,1.17,18.2,8.76,33.49,20.82,46.97,7.62,8.52,16.2,15.33,27.28,18.54,2.82.82,4.22,1.81,4.33,5.2.19,6.01,4.22,8.31,10.05,6.52,2.92-.9,5.9-2.18,7.44-4.65,2.62-4.2,6.34-4.99,10.75-5.28,32.41-2.17,53.13-20.58,67.02-48.41.58-1.16,1.24-2.3,1.68-3.52.55-1.51,1.43-1.95,3-1.56,1.78.43,1.84,1.69,1.6,3.01Z"/>
  <path class="cls-13" d="M353.92,130.97c-11.34-4.72-23.03-4.6-34.94-2.88-6.42.93-12.91,1.85-19.46.82-4.57-.71-7.2-3.09-6.58-7.92.47-3.68.84-7.89,6.6-5.35.44.19,1.53-.28,1.84-.76.63-.98-.14-1.9-.94-2.28-3.9-1.83-7.91-3.31-12.34-2.15-1.1.29-2.37.71-2.37,1.99,0,1.3,1.07,1.94,2.36,1.66,2.58-.56,2.65.4,2.18,2.65-2.31,10.87,1.05,15.36,12.04,16.19,2.39.18,4.83-.12,7.24-.33,8.83-.77,17.65-1.59,27.07-2.44-1.58,4.43-3.03,8.06-1.41,12.04,1.04,2.54-.7,3.02-2.8,3.45-17.14,3.54-34.6,4.7-51.93,6.36-11.54,1.1-11.92-1.35-11.84-11.56.13-16.54,2.65-32.93,8.38-48.68,3.73-10.26,11.52-14.49,21.73-15.59,2.41-.26,4.18.26,5.79,2.31,4.59,5.85,11.32,7.51,17.6,5.09,6.5-2.51,12.08-7.37,19.65-3.54.72.36,2.38-.09,2.46-1.59.08-1.49-1.25-1.86-2.29-1.86-3.5.02-6.4-1.85-9.58-2.79-3.17-.93-3.1-3.81-3.62-6.3-.51-2.46,1.14-3.06,3.02-3.81,3.33-1.34,5.16-4.13,6.17-7.48,1.93-6.38,1.1-12.52-1.8-18.41-1.97-4-4.09-7.94-6.21-11.86-.82-1.52-.36-4.27-2.78-4.29-2.3-.02-2.26,2.59-3.07,4.16-4.32,8.44-10.02,15.49-20.05,16.85-4.4.6-4.68,2.1-3.57,5.8,1.92,6.43,2.88,13,1.59,19.8-.59,3.11-1.84,4.3-5.03,4.62-12.38,1.27-20.43,7.98-24.25,19.89-5.04,15.71-7.35,31.86-7.84,48.26-.34,11.29,2.11,13.75,13.25,14.58,3.05.23,4.42,1.23,5.04,4.46,1.41,7.3,6.21,11.93,13.47,13.19,11.94,2.07,24.01,2.93,36.15,2.53,2.86-.1,5.46-1.06,7.98-2.32,1.3-.65,3.12-1.28,2.38-3.15-.91-2.31-2.54-.58-3.71-.12-2.25.89-4.44,1.99-6.9,2.07-11.76.36-23.45-.58-35.04-2.48-5.83-.96-9.53-4.71-10.97-10.57-.56-2.28-.03-3.07,2.45-3.73,7.61-2.02,15.34-2.87,23.14-3.22,14.58-.65,28.34-4.93,42.05-9.39,2.95-.96,6.5-2.36,6.41-6.12-.09-3.78-3.81-4.62-6.7-5.82ZM306.21,46.13c9.55-2.27,15.47-9.02,20.88-17.64,3.53,7.15,8.33,13.07,8.29,20.98-.04,9.93-5.43,13.86-14.88,10.73-1.23-.41-2.37-1.06-3.59-1.51-1.06-.39-2.25-.67-2.75.77-.34,1,.18,1.82,1.11,2.26,1.5.71,2.99,1.71,4.58,1.96,3.6.55,5.13,2.1,5.71,6.01,1.34,9.12-3.49,13.5-12.54,10.62-5.73-1.82-8.41-6.34-7.29-12.29,1.15-6.14.23-12.17-1.18-18.14-.42-1.78-.82-3.18,1.64-3.76ZM354.86,138.68c-3.99,2.04-8.26,3.16-13.35,3.59-2.14.64-3.26-.88-3.29-3.25-.05-2.97,0-6.28,3.88-6.88,4.81-.75,9.07,1.38,13.21,3.43,2.35,1.16.96,2.39-.45,3.11Z"/>
  <path class="cls-15" d="M385.67,310.11c-3.52-1.18-7.08-2.24-10.67-3.17-1.65-.43-2.98.53-3.58,2.02-1.5,3.75-4.45,6.37-6.98,9.33-1.98,2.32-3.63,5.03-2.94,8.12,1.68,7.48,6.03,13.18,12.96,16.55,3.12,1.52,7.02,1.36,7.62-2.74,1.33-9.02,2.69-18,4.94-25.7.18-2.48.12-3.93-1.35-4.42ZM379.1,336.91c-.2,3.43-1.7,3.6-4.33,2.27-9.52-4.8-11.54-14.2-4.42-21.94,1.9-2.07,2.49-5.44,5.04-6.14l8.33,2.38c-1.6,5.92-4.27,17.32-4.62,23.44Z"/>
  <path class="cls-8" d="M502.57,308.93c-6.04-2.52-11.21-6.44-16.67-9.93-4.33-2.77-8.85-1.96-13.05.83-1.68,1.11-2.86,2.46-2,4.6,1.84,4.55,4.8,8,9.91,8.74,4.03.59,8.12.78,12.25,1.16,2.91-.14,5.87-.19,8.82-.47,1.04-.1,2.2-.57,2.52-1.86.38-1.57-.56-2.56-1.78-3.07ZM486.19,310.01c-1.48-.08-2.98-.06-4.45-.26-3.2-.43-5.38-2.25-6.8-5.12-.49-1-.48-1.88.51-2.34,2.96-1.37,5.97-2.14,8.99-.07,3.22,2.2,12.69,6.54,15.92,8.72-4.62.65-11.45-.85-14.16-.94Z"/>
  <path class="cls-11" d="M420.64,88.06c-1.03-4.94-5.48-4.05-8.84-4.75-3.23.42-6.65.41-8.29,3.72-1.41,2.86,1,4.81,2.34,6.9,2.42,3.78,5.86,5.19,10,3.2,3.66-1.76,5.65-4.92,4.79-9.07ZM412.64,94.16c-3.18.06-4.99-2.59-5.2-4.91-.28-2.95,3.02-1.43,4.54-2.23,1.97.71,5.18-.74,5.02,2.94-.11,2.49-1.78,4.15-4.35,4.2Z"/>
  <path class="cls-4" d="M178.31,538.33c-2.64,15.31-2.87,29.71.21,43.89,3.2,14.73,8.02,29.05,13.39,43.15,1.86,4.88,4.95,9.07,8.53,12.86,3.2,3.39,4.92,7.31,4.6,12.03-.5,7.3,1.56,14.26,2.88,21.31.26,1.42,1.07,3.16-.46,4.07-1.75,1.04-3.07-.55-4.17-1.68-4.21-4.36-6.87-9.61-8.1-15.49-2.72-13.03-7.79-25.18-16.22-35.33-14.34-17.26-21.36-37.11-23.9-59.01-.81-6.94-2.84-13.7-3.17-20.76-.13-2.87.47-3.73,3.5-3.83,6.45-.21,12.88-.9,19.15-2.68,1.83-.52,4.44-1.36,3.76,1.46Z"/>
  <path class="cls-6" d="M345.11,131.78c3.55.81,11.6,1.53,11.47,4.82-.18,4.22-7.89,4.14-12.57,5.21-1.77.4-4.51,1.55-5.89-.71-1.36-2.23-.87-4.76.18-7.12,1.09-2.45,3.31-2.37,6.82-2.21Z"/>
  <path class="cls-3" d="M411.97,86.24c2.13.95,6.09-1.13,5.83,3.16-.19,3.05-2.3,5.02-5.66,4.8-3.6-.24-5.79-3.26-5.87-5.79-.11-3.18,3.81-1.21,5.7-2.17Z"/>
  <g>
    <path class="cls-1" d="M234.59,744.72v-17.14l48.27-24.54v18.65l-32.87,14.4,32.87,14.67v18.51l-48.27-24.54Z"/>
    <path class="cls-1" d="M323.14,673.29h16.9l-31.48,95.97h-17.02l31.6-95.97Z"/>
    <path class="cls-1" d="M348.72,750.75l32.87-14.67-32.87-14.4v-18.65l48.27,24.54v17.14l-48.27,24.54v-18.51Z"/>
  </g>
  <g>
    <path class="cls-1" d="M989.64,326.94l2.26-14.17,43.15-13.93-2.46,15.42-29.08,7.57,25.25,16.46-2.44,15.3-36.68-26.65Z"/>
    <path class="cls-1" d="M1072.27,279.54l13.97,2.23-38.67,75.21-14.07-2.24,38.77-75.19Z"/>
    <path class="cls-1" d="M1083.22,346.96l29.12-7.8-25.29-16.23,2.46-15.42,36.68,26.65-2.26,14.17-43.15,13.93,2.44-15.3Z"/>
  </g>
  <g>
    <path class="cls-1" d="M369.84,143.14v-9.15l25.76-13.1v9.95l-17.55,7.68,17.55,7.83v9.88l-25.76-13.1Z"/>
    <path class="cls-1" d="M417.1,105.01h9.02l-16.81,51.23h-9.08l16.87-51.23Z"/>
    <path class="cls-1" d="M430.75,146.36l17.55-7.83-17.55-7.68v-9.95l25.76,13.1v9.15l-25.76,13.1v-9.88Z"/>
  </g>
</svg>