<?xml version="1.0" encoding="UTF-8"?>
<svg id="LOGO" xmlns="http://www.w3.org/2000/svg" xmlns:xlink="http://www.w3.org/1999/xlink" viewBox="0 0 1047.76 783.77">
  <defs>
    <style>
      .cls-1 {
        fill: #1d1d1b;
      }

      .cls-2, .cls-3 {
        fill: #fff;
      }

      .cls-4 {
        fill: #403c90;
      }

      .cls-5 {
        fill: #4e358c;
      }

      .cls-3 {
        stroke: #ededed;
        stroke-miterlimit: 10;
        stroke-width: 5.5px;
      }

      .cls-6 {
        fill: #ededed;
      }
    </style>
    <filter id="drop-shadow-1" filterUnits="userSpaceOnUse">
      <feOffset dx="0" dy="2.83"/>
      <feGaussianBlur result="blur" stdDeviation="2.83"/>
      <feFlood flood-color="#575755" flood-opacity=".5"/>
      <feComposite in2="blur" operator="in"/>
      <feComposite in="SourceGraphic"/>
    </filter>
  </defs>
  <path class="cls-4" d="M12.87,732.28c16.9-62.7,31.14-115.64,50.06-177.71,1.53-5.01,4.15-9.5,5.43-14.68,1.28-5.21,5.94-2.76,8.13-.76,3.76,3.43,7.86,3.56,12.38,3.54,15.22-.08,30.44-.07,45.67-.02,9.62.03,19.1-.43,28.56,3.19,9.16,3.51,19.27.59,28.91,1.92,10.9,1.51,21.94,2.08,32.81,3.79,13.03,2.06,22.34-2.66,28.86-13.76,1.4-2.38,2.34-6.04,5.98-5.14,3.47.86,2.11,4.29,2.08,6.74-.03,2.85,1.47,5.4.82,8.46-.88,4.13,1.91,5.86,5.63,5.32,8.06-1.18,15.93,1.17,23.97.96,5.12-.13,3.69,4.91,3.32,7.9-1.97,15.84-3.78,31.68-6.74,47.4-3.73,19.79-6.63,39.75-9.88,59.63-13.62.17-27.25.5-40.87.45-5.54-.02-8.34,1.67-7.9,7.67.44,5.99.46,12.01.45,18.02-.01,5.9,2.19,7.79,8.51,7.43,11.47-.65,23.02.07,34.53.22-2.76,23.91-6.2,47.73-11.51,71.22-1.67,7.39-7.8,8.23-14.25,8.22-35.44-.07-70.88-.27-106.32.01-29.12.23-58.23-.87-87.37,1.27-14.01,1.03-28.21-1.88-42.4-1.5-3.84.1-8.69,1.49-11.73-.59"/>
  <path class="cls-6" d="M217.61.94c8.55,3.06,16.96,6.27,24.8,11.07,29.68,18.19,41.08,57.72,25.21,88.66-3.75,7.32-7.99,13.86-4.63,23.26,2.66,7.42-1.89,14.22-8.43,18.74-6.33,4.37-13.52,4.26-19.13-.16-6.55-5.16-12.58-3.52-19.68-2.49-30.75,4.45-58.62-.7-79.08-26.8-21.61-27.56-18.75-66.61,5.81-91.63,8.19-8.35,17.5-13.87,28.36-17.39,2.13-.69,14.56-3.72,19.03-3.46,11.75-.98,14.64-1.05,27.74.2Z"/>
  <path class="cls-4" d="M831.89,320.91c5.29-25.1,10.56-50.21,15.87-75.31.65-3.07,1.18-6.2,2.2-9.15,1.37-3.97,4.37-7.4,8.46-7.33,17.65.31,34.83-3.76,53.06-1.1,17.81,2.6,28.24,10.88,37.59,24.44,9.66,14.01,21.85,26.38,30.63,40.86,9.73,16.03,16.53,33.8,25.22,50.5,8.92,17.16,15.57,35.27,23.21,52.96,13.97,32.35,12.03,64.63-4.66,95.01-5.63,10.25-16.83,17.69-26.22,25.54-5.73,4.79-7.03,9.08-4.84,16.24,6.74,22.01,12.74,44.25,18.87,66.44,1.96,7.09-2.7,13.53-10.76,15.41-15.83,3.69-31.66,7.36-47.5,11.03-4.11.95-8.04,1.93-10.87,5.65-3.05,4.01-8.12,3.23-12.36,3.89-33.17,5.11-66.48,9.3-99.41,15.91-21.59,4.33-43.16,8.76-64.71,13.14-4.47,0-8.86,1.75-13.41.78-3.23-6.75-1.95-14.17-2.69-21.21-1.51-14.38-1.64-28.9-2.34-43.37,6.5,11.89,13.67,23.48,19.19,35.8,2.51,5.6,4.81,6.2,9.84,4.81,19.59-5.42,39.2-10.81,58.89-15.86,29.52-7.57,58.61-16.8,88.5-22.89,4.25-.87,5.06-2.97,3.42-6.69-4.18-9.52-8.19-19.11-12.46-28.59-1.3-2.88-3.48-5.21-6.71-6.21-7.74-2.95-14.17,1.23-20.7,4.07-9.81,4.28-19.42,9.05-29.12,13.6-3.35,1.57-6.83,3.22-10.4.94-3.93-2.52-2.26-6.25-2-9.89,1.63-23.13-4.39-44.46-16.16-64.22-4.76-7.99-8.71-16.83-18.15-20.83,3.11-5.29,8.71-7.44,13.54-10.41,10.7-6.57,21.85-12.41,32.39-19.22,7.86-5.08,8.17-8.29,4.13-16-6.68-12.73-13.64-25.33-19.68-38.36-3.38-7.3-7.3-9.25-15.22-7.1-41.09,11.17-82.31,21.88-123.52,32.62-20.23,5.27-20.12,5.1-13.25,24.52,8.09,22.87,19.19,45.93,26.19,69.19-3.4,7.08-9.83,9.48-18.48,8.94-7.86-.49-15.88,2.87-23.91,3.63-12.18,1.16-24.56-1.5-36.67,1.95-5.28,1.51-10.71,2.5-16.05,3.81-8.09,1.98-15.88,4.76-24.62,2.06-5.56-1.72-11.12,2.4-16.95,2.47-9.86.11-10.95-.35-9.98-9.88,1.68-16.46-1.75-32.01-4.93-48.06-3.06-15.44-9.2-28.59-17.76-41.15-2.22-3.26-.69-3.89,2.21-4.5,34.91-7.35,69.75-14.98,104.74-21.93,6.44-1.28,11.66-5.23,18.3-6.01,4.1-.49,6.51-4.36,6.98-9.27,3.02-31.71,5.68-63.48,9.9-95.04,1.35-10.07,7.04-19.58,10.83-29.31,1.59-4.08,4.26-7.8,2.45-12.67-1.19-3.19,1.79-4.62,3.83-6.11,14.29-10.51,31.21-13.2,48.11-15.6,4.25-.6,7.38,1.81,9.55,6.44,11.78,25.15,24.06,50.06,36.19,75.04.9,1.86,1.55,3.96,3.8,4.77,4.96,11.72,8.89,23.89,15.25,35,.86,1.51,1.18,3.72,3.63,3.47,1.78-.18,2.82-1.58,3.05-3.13,2.22-14.83,4.34-29.68,6.48-44.53Z"/>
  <path class="cls-6" d="M752.26,665.82c4.55.97,8.95-.77,13.41-.78,5.06,1.73,10.36,1.36,15.58,1.3,36.19-.4,72.38.75,108.56-.75,2.31-.1,5.16-.23,4.95,3.29-.58,9.64,1.07,19.32-.91,28.95-.83,4.02-2.45,5.67-6.77,5.65-67.66-.3-135.33-.47-202.99-.63-52.7-.12-105.4-.19-158.1-.28-80.76-.14-161.51-.29-242.27-.4-3.38,0-6.76.43-10.15.66-11.52-.15-23.06-.86-34.53-.22-6.32.36-8.53-1.53-8.51-7.43.01-6.01,0-12.03-.45-18.02-.44-6,2.36-7.69,7.9-7.67,13.62.05,27.25-.27,40.87-.45,14.67.15,29.33.33,44,.42,1.22,0,3.54-.71,3.52-.88-1.09-9.54,6.34-5.88,10.1-5.89,96.25-.21,192.49-.18,288.74-.17,3.73,0,7.94-1.12,9.55,4.25.48,1.6,2.79,1.02,4.3,1,37.74-.63,75.48-1.29,113.22-1.95Z"/>
  <path class="cls-6" d="M929.28,172.86c-4.25.93-10.27-.08-15.92-2.15-8.69-3.18-16.67-4.9-25.75.02-6.09,3.3-13.06.66-17.91-4.45-4.96-5.23-5.93-12.03-2.81-18.27,2.64-5.3,1.31-8.64-1.5-13.27-25.81-42.48,3.69-102.07,53.24-108.82,30.22-4.12,70.71,9.29,85.01,47.69,6.55,17.59,7.44,35.82-1.41,52.59-14.89,28.23-37.84,45.53-72.95,46.67Z"/>
  <path class="cls-1" d="M714.3,519.86c-7-23.26-16.44-45.65-24.53-68.53-6.87-19.42-6.99-19.25,13.25-24.52,41.21-10.74,82.43-21.45,123.52-32.62,7.92-2.15,11.84-.2,15.22,7.1,6.04,13.03,13,25.63,19.68,38.36,4.05,7.71,3.73,10.92-4.13,16-10.53,6.81-21.69,12.65-32.39,19.22-4.84,2.97-10.44,5.11-13.54,10.41-20.51,19.18-46.83,26.35-73.73,10.08-4.63-2.8-10.82-6.62-15.52-.49-4.52,5.9-4.16,8.88.72,12.32,3.81,2.68,17.14,5.25,13.53,10.11-2.87,3.87-17.27,9.12-22.07,2.56Z"/>
  <path class="cls-1" d="M354.39,76.89c17.47,9.51,36.61,6.42,55.1,8.5,11.01,1.23,15.75,10.92,17.26,20.92,1.27,8.42,4.59,15.1,10.08,21.51,10.06,11.75,9.01,22.75-1.76,34.11-6.11,6.45-11.61,13.48-17.64,20-2.18,2.36-4.77,5.6-8.69,3.04-3.51-2.29-1.62-5.54-.9-8.53,3.34-14.04,3.93-27.95-2.28-41.45-2.26-4.9-4.26-8.7-10.49-3.05-6.65,6.04-15.78,6.49-24.4,7.36-11.72,1.19-14.75,4.13-16.25,15.68-.29,2.19.16,5.27-2.48,6.05-2.57.76-2.79-2.57-4.29-3.85-3.97-3.43-5.95-10.89-13.68-6.19-6,3.65-7.31,9.57-3.63,17.81,1.72,3.84,4.32,7.87-.18,11.28-4.07,3.09-7.98.68-11.58-1.59-3.17-2-5.74-4.75-7.19-8.15-2.83-6.62-6.56-11.92-13.23-15.69-5.99-3.39-9.71-29.34-6.06-35.31,3.16-5.17,8.39-7.44,13.89-7.8,11.15-.74,18.3-6.62,23.75-15.71,2.28-3.79,5.01-7.38,7.95-10.69,4.33-4.89,9.71-7.94,16.7-8.26Z"/>
  <path class="cls-1" d="M907.91,561.61c3.23,1.01,5.41,3.33,6.71,6.21,4.27,9.48,8.28,19.07,12.46,28.59,1.63,3.73.83,5.83-3.42,6.69-29.9,6.09-58.98,15.33-88.5,22.89-19.69,5.05-39.3,10.44-58.89,15.86-5.03,1.39-7.33.78-9.84-4.81-5.52-12.32-12.69-23.91-19.19-35.8.59-3.93,2.87-4.43,6.65-4.54,25.03-.71,49.25-5.95,72.33-15.49,6.96-2.88,12.01-7.29,18.68.95,4.49,5.54,11.75,4.65,18.16,1.49,12.42-6.11,25.28-11.37,36.99-18.88,2.41-1.55,4.78-3.26,7.86-3.17Z"/>
  <path class="cls-1" d="M714.98,102.97c.99-27.92,23.62-42.86,49.72-32.71,4.37,1.7,8.57,3.88,12.8,5.94,3.41,1.67,6.97,2.07,10.68,1.67,16.82-1.8,25.96,3.79,30.91,20.01,1.77,5.8,4.23,10.04,9.53,13.35,6.52,4.07,7.97,10.4,5.48,17.86-3.15,9.43-8.95,17.72-11.42,27.41-.74,2.9-2.64,3.94-5.24,1.95-5.29-4.06-10.44-3.93-15.72.01-2.73,2.04-6.01,2.59-8.87.83-2.97-1.83-3.04-5.16-2.84-8.44q1.35-22.83-21.25-26.36c-3.62-.56-7.27-.94-10.93-1.19-6.83-.47-11.2,1.84-12.99,9.3-2.2,9.18-3.24,9.23-11.19,3.57-11.43-8.14-19.57-18.15-18.66-33.21Z"/>
  <path class="cls-6" d="M295.13,285.56c0-24.62-.02-49.24.02-73.86,0-3.52-1.07-8.32,4.08-8.75,4.67-.38,9.77-2.56,13.6,3.97,7.2,12.29,18.15,19.97,32.93,20.91,4.62.29,7.13,1.84,7.14,7.09.01,4.83-.73,9.29-2.74,13.62-16.66,35.85-29.26,73.34-44.46,109.78-1.6,3.84-2.19,10.22-7.63,9.02-5.01-1.11-2.91-7.11-2.93-11.06-.12-23.57-.06-47.14-.06-70.72h.04Z"/>
  <path class="cls-6" d="M831.89,320.91c-2.14,14.85-4.26,29.69-6.48,44.53-.23,1.55-1.27,2.95-3.05,3.13-2.44.24-2.76-1.97-3.63-3.47-6.37-11.11-10.3-23.28-15.25-35,1.3-20.23-2.06-39.95-6.54-59.55-.17-.74-.45-1.68-1.01-2.08-10.51-7.66-5.8-17.76-4.54-27.34.28-2.13.49-4.44,2.69-5.18,2.14-.71,3.04,1.64,4.22,2.89,6.11,6.46,12.82,12.6,9.88,23.06-.95,3.38.64,6.8,1.95,9.84,7.11,16.45,14.48,32.79,21.76,49.17Z"/>
  <g>
    <path class="cls-1" d="M1046.82,766.54c-6.09-25.91-12.14-51.84-18.23-77.75-4.72-20.07-9.45-40.13-14.26-60.18-.66-2.76-1.37-6.13-5.15-5.84-3.05.24-3.16,2.96-2.96,5.44.17,1.3.25,2.62.55,3.89,10.76,45.46,21.56,90.91,32.3,136.37.8,3.38,1.1,7.59,5.96,6.1,4.18-1.28,2.5-5.01,1.79-8.03Z"/>
    <path class="cls-1" d="M885.68,710.71c-1.3-4.3-3.17-8.27-5.15-12.22-.71-1.41-1.82-2.82-3.66-2.02-1.53.67-2.3,2.07-2,3.86.71,3.04,1.24,6.14,2.15,9.11,6.2,20.18,12.49,40.33,18.71,60.5.99,3.21,1.39,7.71,6.1,6.18,4.6-1.49,2.43-5.51,1.45-8.65-5.87-18.92-11.88-37.8-17.59-56.76Z"/>
    <path class="cls-1" d="M752.68,696.59c-3.51.09-2.95,3.58-3.23,6.12-2.42,21.89-.8,43.88-1.53,65.82-.1,3.06-.6,7.21,3.98,6.93,3.93-.23,4.12-3.99,4.1-7.3-.06-10.72-.02-21.45-.02-32.17h.21c0-10.98.05-21.96-.03-32.94-.02-2.7.81-6.57-3.47-6.46Z"/>
    <path class="cls-1" d="M560.26,697.78c-5.52-.13-4.06,6.41-4.13,10.05-.36,19.62-.25,39.24-.27,58.86,0,3.07-.66,7.3,3.7,7.29,4.61-.02,4.33-4.36,4.34-7.77.02-9.94,0-19.88,0-29.83h.27c0-9.42.27-18.85-.13-28.25-.16-3.75,1.86-10.22-3.79-10.35Z"/>
    <path class="cls-1" d="M302.25,332.76c-.42-.01-.84-.03-1.26-.04.18.31.36.48.55.52-.06,3.45-.29,6.93.14,10.31.34,2.63-2.2,6.13,1.89,7.88-2.57-6.07-.53-12.47-1.32-18.67Z"/>
    <path class="cls-1" d="M1015.4,605.44c-6.68-24.68-13.04-49.46-20.11-74.03-1.69-5.89-.46-8.9,4.4-12.2,41.4-28.1,43.87-79.04,32.36-115.26-9.08-28.57-22.78-54.91-35.51-81.8-12.12-25.59-25.27-50.44-42.61-73.01-9.06-11.8-20.8-18.36-34.88-22.04-17.88-4.68-35.74-4.56-53.74-1.23-1.7.31-3.6,2-5.17.3-5.21-5.63-12.57-6.7-19.26-8.1-11.11-2.34-17.27-8.74-20.4-19.07-1.13-3.73-2.8-7.3-3.99-11.02-1.76-5.52-2.65-10.51,1.75-15.98,3.86-4.8,4.56-11.52.06-16.74-4.17-4.84-9.78-3.82-15.27-1.75-7.48,2.82-8.55,2.04-8.92-5.86-.96-20.56-6.35-26.17-26.76-27.66-2.87-.21-5.77.09-8.64-.11-10.02-.71-16.37,4-20.07,13.01-1.86,4.53-4.2,8.4-8.74,11.32-6.19,3.98-7.77,12.36-2.74,17.09,5.49,5.16,5.3,10.9,5.1,17.04-.23,7.27,2.45,13.08,7.34,18.34,5.85,6.29,12.63,10.85,20.81,13.51,6.24,2.03,10.69,13.49,6.91,18.63-5.7,7.75-11.37,15.78-22.76,15.72-3.61-.02-7.25,1.02-10.84,1.75-32.23,6.54-48.44,25.9-50.44,58.65-1.93,31.62-5.02,63.16-6.93,94.78-.41,6.85-3.23,8.65-9.04,9.75-36.28,6.83-72.47,14.18-108.8,20.74-11.41,2.06-22.81,5.06-32.65,10.12-7.46,3.84-10.98,1.48-15.98-1.83-12.01-7.93-24.35-15.41-35.94-23.91-8.7-6.38-16.9-5.79-25.56-1.03-3.89,2.14-7.95,4.28-11.14,7.27-3.29,3.09-5.89,2.5-9.74,1.33-13.56-4.12-24.27-14.23-38.13-17.55-4.06-.97-8.11-2.02-12.12-3.16-2.35-.67-4.17-1.37-3.26-4.86,5.69-21.71,9.25-44.18,17.1-65.06,9.06-24.1,5.59-44.74-8.4-65.1-6.14-8.93-14.2-16.12-20.87-24.53-10.73-13.55-2.46-33.92,14.76-36.51,12.2-1.84,21.61-7.69,27.01-19.01,3.48-7.3,6.95-14.64,9.75-22.21,4.87-13.14,3.12-25.75-4.86-37.26-2.97-4.29-7.8-8.38-12.1-2.94-6.99,8.84-15.53,12.76-26.43,12.84-10.81.08-19.13,3.68-20.46,16.44-2.09-1.73-3.39-3.04-4.9-4.02-5.52-3.57-11.36-4.71-16.63.02-5.25,4.72-5.8,11.62-1.67,16.34,6.98,7.98,2.95,12.71-2.78,18.03-3.46,3.21-6.88,6.5-9.94,10.08-6.26,7.31-13.42,8.45-22.56,5.64-27.24-8.37-54.92-13.74-83.58-8.21-19.66,3.79-37.99,11.54-48.71,28.77-31.19,50.16-61.33,100.98-91.48,151.78-21.16,35.65-10.99,79.73,23.5,103.05,4.81,3.25,5.3,5.31,2.62,10.35-8.48,15.93-16.28,32.22-24.36,48.35-2.61,5.21-3.23,8.96,4.72,8.98,6.53.02,13.07.94,19.6,1.51,46.49,4.03,93,7.94,139.47,12.22,9.15.84,16.47-.1,20.03-9.98.81-2.26,2.34-4.59,5.01-5.87-.09.95-.07,1.74-.24,2.48-2.92,13.53-2.77,13.79,10.39,15.36,3.64.44,7.3.97,10.96,1.03,6.48.11,13.47,1.51,18.68-3.7,3.31-3.31,4.8-1.93,6.05,1.31,5.02,13.04,17.31,21.04,23.2,33.51,1.58,3.35,4.95,5.36,8.42,6.78,9.8,4,13.51,11.09,11.94,21.81-1.56,10.7-6.58,20.33-9.02,30.73-1.85,7.89,1.75,12.58,9.69,13.54,8.29,1.01,14.78-1.81,20.14-8.11,7.3-8.59,14.77-17.02,22.3-25.41,3-3.34,6.37-6.55,11.49-5,16.44,4.97,32.36,10.71,42.48,26.1,3,4.56,6.58,8.87,10.5,12.67,5.77,5.59,15.87,6.67,19.75,1.18,3.85-5.45,7.31-4.11,11.78-2.58,1.47.5,3.04.85,4.59.94,4.09.23,7.91-.42,10.24-4.35,2.35-3.97-.08-7.08-2.22-9.98-4.75-6.45-11.29-10.95-18.02-15-30.71-18.47-50.28-46.49-66.9-77.09-2.01-7-7.11-8.85-13.84-8.92-24.28-.23-47.39,4.75-69.12,15.48-5.97,2.95-9.12,1.67-12.93-3.64-8.36-11.66-11.52-23.38-6.08-37.39,3.5-9.02,3.76-10.15,13.27-8.74,5.25.78,10.47,1.35,15.42-1.1,8.83-4.38,18.49-2.77,27.76-3.83,4.9-.56,8.03,1.74,6.32,7.67-.81,2.83-.29,6.39,1.98,8.06,6.42,4.72,10.32,12.43,15.8,16.59,5.81,4.42,14.53,7.65,22.6,9.74,1.2.31,2.62.22,3.71-.74,3.33-2.91,3.74.09,4.55,2.25,1.78,4.74,6.51,7.4,9.89,5.19,7.73-5.07,13.82-1.43,20.56,1.25,4.5,1.79,10.09,2.44,13.87.49,8.69-4.47,18.81-3.95,27.12-8.92,1.89-1.13,3.58-1.87,5.78-1.69,9.91.8,17.9-8.56,28.3-5.4.35.11.98-.38,1.36-.71,10.41-9.24,22.75-4.96,34.48-4.94,1.79,0,2.58.42,2.82,2.59.94,8.52,4.77,11.12,14.04,9.76,37.59-5.53,75.16-11.13,112.75-16.63,2.72-.4,6.34-1.62,7.94,1.22,2.7,4.79,7.1,7.1,11.95,8.97-8.38,12.05-7.39,16.45,4.76,22.56,2.73,1.37,2.85,2.28,1.75,5.12-2.95,7.58-.6,13,7.48,14.97,9.42,2.3,11.2,9.63,12.21,16.8,2.89,20.45,4.72,41.05,7.4,61.53,1.11,8.5,5.42,11.01,12.96,9.36,30.64-6.69,61.3-13.31,91.98-19.86,51.14-10.93,102.31-21.73,153.43-32.72,10.22-2.2,11.84-5.43,9.13-15.45ZM493.95,651.43c.97,1.07,2.38,2.39,1.71,4.09-.73,1.84-2.66,1.33-4.08,1.26-7.1-.36-13.11-3.04-17.14-9.08-3.32-4.98-6.29-10.18-9.42-15.28,10.93,4.59,21.01,10.25,28.93,19.01ZM411.17,577.53c4.43-.44,7.11.42,10.06,3.84,18.37,21.26,33.88,44.47,47.96,68.69,1.84,3.17,5.65,7.07,1.23,10.36-4.24,3.16-9,1.88-12.62-2.12-2.1-2.32-4.34-4.61-5.97-7.25-10.74-17.36-27.52-25.81-46.19-31.48-1.97-.6-4.1-.68-3.86-.64-9.24-.55-13.31,4.01-17.35,8.52-8.01,8.94-15.54,18.3-24.22,26.66-2.04,1.96-4.24,3.07-6.76,3.58-7.83,1.59-11.22-2.32-8.88-9.94,3.43-11.15,9.04-21.78,8.3-33.94-.14-2.33.16-5.04-.92-6.9-4.78-8.21-1.3-11.46,6.53-14.77,17-7.17,34.23-12.78,52.69-14.62ZM336.09,572.71c16.13-7.29,32.8-12.24,50.52-13.38,2.62-.17,5.24-.21,7.85-.42q9.99-.81,14.61,9.63c-22.63,2-43.18,10.1-63.36,19.41-6.03,2.78-10.15-.05-12.9-5.28-2.23-4.24-2.1-7.52,3.28-9.96ZM819.53,209.93c2.36,4.28-.62,4.98-3.24,6-11.78,4.57-24.18,6.4-38.41,8.54-6.11,1.95-3.89-5.17-5.48-8.44-2.06-4.23,1.04-4.97,4.41-6.05,9.84-3.15,16.52-10.24,20.05-19.55,2.2-5.8,7.4-5.04,11.17-7.25,2.04-1.2,1.91,1.78,2.21,2.82,2.36,8.27,5.14,16.41,9.29,23.94ZM754.2,125.38c3.11-.33,6.29-.06,9.43-.06,20.09-.06,26.69,6.59,25.45,25.47-.13,2.03.45,4.46-2.77,4.53-2.09.05-3.62-.19-5.08-2.5-6.97-11.06-13.02-11.61-23.06-2.48-1,.91-1.94,2.38-3.14,1.39-4.6-3.81-10.03-7.22-13.09-12.07-2.17-3.44,7.28-13.76,12.26-14.28ZM776.54,157.71c-.52,4.27-2.94,6.94-7.7,6.69-4.55-.23-7.69-3.2-7.41-7.38.26-3.84,2.71-7.44,7.8-7.04,4.58.36,7.29,2.54,7.31,7.73ZM730.52,154.44c-.08-4.99,2.81-7.8,7.81-7.63,4.64.15,7.23,3.1,7.13,7.6-.1,4.5-2.56,7.25-7.47,7.05-4.81.14-7.39-2.43-7.46-7.02ZM764.11,205.35c-14.96-2.61-26.52-15.65-26.76-30.84-1.2-4.23.61-7.04,5.62-8.24,3.19-.76,5.51-3.24,6.74-6.15,2.15-5.1,3.93-3.64,6.23-.19,8.57,12.81,13.25,13.28,24.98,2.89,3.26-2.88,7.51-2.02,11.11-1.5,4.64.66,8.46.3,12.52-2.3,2.7-1.73,6.4-2.92,9.47-.11,3.42,3.12,1.1,6.42-.4,9.27-3.29,6.28-8.25,10.89-15.55,11.84-3.23.42-4.47,2.09-5.39,4.73-5.54,15.91-15.28,22.91-28.58,20.59ZM778.32,233.51c7.75-1.27,15.54-2.28,23.31-3.39,6.68-2.17,13.24-4.82,20.06-6.38,8.04-1.85,14.8,3.1,22.65,4.78-16.47,18.54-26.32,20.53-41.18,8.93h0c-10.57-3.76-14.48-1.91-18.74,8.39-1.09,2.64-.64,7.42-4.74,7.01-4.96-.49-9.2-3.83-12.78-7.21-1.73-1.63,7.25-11.44,11.42-12.12ZM846.27,240.68c-8.48,42.47-18.71,83-26.93,124.62-17.25-35.29-34.5-70.57-51.93-106.21,5.17-.46,7.97,3.33,11.75,4.77,4.46,1.7,7.38,1.59,9.14-3.49,1.45-4.17,3.6-8.09,5.19-12.22,1.28-3.32,3-3.91,5.87-1.81,3.59,2.62,7.52,4.82,10.85,7.72,4.7,4.09,9.12,4.23,14.18.79,6.65-4.52,13.49-8.75,21.88-14.15ZM332.43,153.2c2.38-1.85,4.98-1.61,7.29.07,2.31,1.68,4.45,3.61,6.54,5.56,1.75,1.63,3.37,3.49,6.09,2.44,2.5-.96,3.22-3.01,3.56-5.56,1.53-11.47,3.03-12.87,14.93-13.11,10.72-.21,20.15-3.26,27.13-11.72,3.3-4,4.87-2.18,6.86,1.07,5.52,9.05,6.51,18.74,3.38,28.59-2.28,7.17-5.58,14.02-8.58,20.95-5.38,12.43-15.31,18.23-28.5,18.3-9.1.05-20.77-10.72-24.28-22-.74-2.37-1.24-4.42-3.55-5.58-3.67.25-6.12-1.65-8.01-4.53-2.63-1.56-3.93-4.03-4.89-6.81-1.07-3.07-.54-5.68,2.03-7.68ZM316.25,199.24c6.48-6.79,12.81-13.72,19.29-20.52,2.72-2.85,4.81-1.34,5.88,1.55,3.41,9.15,9.49,16.03,17.41,21.51.8.55,1.81,1.37,1.95,2.2.81,4.86-11.64,18.48-17.4,18.4-10.75-2.05-20.38-7.18-27.24-16.88-1.5-2.12-1.96-4.09.11-6.26ZM338.05,250.21c-1.66-6.95-1.34-14.01-.55-20.99.25-2.22,2.87-1.66,5.12-1.55,4.21-.6,6.02,1.96,5.25,6.03-1.18,6.26-1.66,12.97-7.34,17.36-.94.73-2.18.4-2.48-.84ZM337.49,263.89c-11.26,29.2-22.59,58.37-33.91,87.55-.25,2.24-.87,4.29-2.58,6.08v-115.57c1.78,1.4,2.75,2.51,2.83,4.35q5.78,9.34,13.84,1.89c2.11-1.96,4.12-4.05,5.97-6.25,1.85-2.2,3.44-4.61,5.94-8,3.09,6.51,2,11.22,2.57,15.67.48,3.73-.52,7.92,4.97,9.3,3.2.8,1.01,3.37.38,4.99ZM301.17,209.31c3.52-.13,7.52-3.95,10.78.47,4.28,5.81,9.69,10.24,16.13,13.46,2.59,1.3,3.64,2.82,1.26,5.38-5.7,6.12-11.3,12.32-17.86,19.49-5.35-12.15-13.74-20.65-12.2-32.94.27-2.11-1.33-5.74,1.89-5.86ZM296.05,542.73c-1.97,6.13-5.39,8.72-12.03,8.64-19.67-.23-19.7-.02-16.82-18.89.54-3.55.97-7.05-2.98-8.78-3.72-1.63-5.83,1.28-7.76,3.72-3.08,3.9-6.77,7.59-8.77,12.02-3.69,8.17-9.61,9.23-17.65,8.51-48.79-4.37-97.61-8.48-146.44-12.41-5.9-.48-5.7-2.3-3.46-6.63,6.96-13.47,14.01-26.92,20.29-40.71,2.58-5.66,5.76-6.94,11.46-5.96,20.88,3.58,41.75,7.28,62.74,10.11,35.79,4.83,71.66,9,107.49,13.52,7.51.95,14.99,2.2,22.68,3.34-2.38,11.57-5.25,22.61-8.76,33.52ZM338.48,496.5c-.37,6.52-4.31,7.75-9.7,7.1-29.91-3.6-59.83-7.07-89.71-10.9-30.39-3.9-60.74-8.04-91.08-12.32-13.21-1.86-26.41-3.98-39.49-6.6-18.87-3.78-38.14-27.3-42.62-48.18-5.31-24.77,3.79-45.34,16.49-64.94,14.94-23.06,28.58-46.9,42.95-70.29,12.74-20.74,25.2-41.65,37.67-62.55,9.71-16.27,25.24-24.19,42.67-28.21,27.38-6.31,54.16-.97,80.63,6.42,4.05,1.13,4.74,3.84,4.99,7.67,3.04,47.65,1.11,95.34,1.36,143.02.01,2.36-.05,4.72.12,7.07.29,3.93,1.77,7.57,5.99,8.13,4.49.6,6.9-2.39,8.47-6.53,11.41-30.02,22.97-59.99,34.5-89.97,3.81-9.9,7.66-19.79,11.73-30.27,14.92,15.71,29.77,30.45,34.45,52.15,1.56,7.24,1.31,14.4-1.09,20.9-8.91,24.09-13.09,49.4-19.78,74.05-1.38,5.1-3,6.05-7.88,4.88-18.29-4.39-18.32-4.25-11.46-22.18,1.68-4.39,3.46-8.75,5.01-13.18,1.03-2.95,2.48-6.59-1.61-8.07-3.77-1.36-4.77,2.38-5.79,4.93-3.4,8.48-6.89,16.95-9.76,25.61-1.56,4.7-3.76,5.97-8.52,4.76-35.73-9.06-71.48-18.07-107.3-26.77-5.94-1.44-6.47-4.12-5.02-9.24,3.46-12.31,6.51-24.73,9.72-37.11.26-1.01.66-2.02.73-3.04.17-2.51,1.33-5.73-2.13-6.7-3.86-1.08-4.92,2.21-5.66,4.99-3.29,12.36-6.5,24.74-9.64,37.13-2.58,10.18-2.53,10.2-12.55,7.65-4.56-1.16-9.13-2.3-13.67-3.54-3.13-.86-6.87-2.02-8.05,1.97-1.25,4.22,2.71,4.85,5.81,5.63,18.22,4.57,36.43,9.19,54.66,13.74,46.39,11.6,92.79,23.18,139.18,34.8,1.25.31,2.42.93,4.22,1.64-4.62,6.25-9.11,12.19-13.47,18.23-14.73,20.38-23.94,42.84-25.37,68.14ZM363.64,492.01c-1.48,5.82-4.87,8.39-10.56,7.41-9.53,1.19-6.59-5.43-6.05-9.69,3.07-23.98,13.64-44.73,28.29-63.62,2.56-3.31,5.46-6.37,7.83-9.81,2.14-3.11,4.71-3.58,8.13-2.81,10.36,2.33,11.65,4.88,5.17,13.23-15.25,19.65-26.66,41.14-32.81,65.29ZM388.1,521.77c-3.21.02-5.58-.75-5.55-4.73.04-5.4,6.98-12.28,13.01-12.59,3.41-.17,5.53,1.47,5.76,4.88.33,4.88-7.68,12.29-13.22,12.44ZM398.71,536.11c-2.84.01-3.41-1.64-3.08-4.1.76-5.63,10.51-16.64,16.15-18.11,2.19-.57,4.23-.62,4.69,2.32.93,5.96-11.6,19.98-17.76,19.89ZM416.43,543.61c-3.12.15-4.15-1.28-4.06-4.21.16-5.03,6.12-11.39,10.98-11.66,3.08-.17,4.23,1.36,4.23,2.94-.17,6.07-6.62,12.72-11.15,12.93ZM431.98,551.43c-2.07-.1-3.8-.69-3.46-3.15.75-5.49,5.01-7.54,9.23-9.26,2.73-.15,3.47,1.39,3.58,3.43.23,3.99-5.23,9.18-9.35,8.98ZM433.61,529.94c2.7-.81,4.07,1.29,6.31,3.6-2.73.13-4.85,1.44-6.6-.74-.45-.57-.1-2.74.29-2.86ZM447.4,549.38c-3.7-2.22,2.18-6.58,1.03-10.87,6.8,4.52,13.6,9.04,20.77,13.8-8.36,4.16-15.51.84-21.8-2.93ZM528.9,535.79c-1.38,2.28-4.01,2.07-6.35,1.63-5.93-1.11-10.52-4.77-14.75-8.6-11.85-10.73-23.39-21.81-35.17-32.62-2.01-1.84-3.8-6.65-7.23-3.32-2.87,2.79,1.19,5.11,3,6.91,12.63,12.57,25.59,24.8,39.28,36.23,1.18.99,2.74,1.65,3.05,3.49-6.99,5.62-13.67,3.27-20.02-1.1-12.51-8.61-24.87-17.43-37.29-26.17-1.07-.75-2.11-1.55-3.21-2.26-1.8-1.18-4.07-2.53-5.61-.46-1.62,2.18.55,3.81,2.26,5.01,6.42,4.53,12.91,8.95,19.31,13.49,7.85,5.56,15.63,11.19,24.05,17.22-8.92,5.2-16.47,3.39-23.8-1.53-8.69-5.84-17.3-11.81-26.1-17.48-5.65-3.64-10.86-9.45-19-4.08,2.24-11.64-.4-14.66-11.06-13.72-2.21.2-3.21-.09-3.91-2.42-2.29-7.66-9.16-8.94-14.5-6.3-7.78,3.84-14.76,1.04-22.29.85,5.84-23.87,15.34-45.71,30.44-64.97,2.42-3.08,5.09-6.2,6.52-9.76,1.83-4.56,4.27-5.1,8.23-3.2,3.99,1.91,9.83,2.64,11.62,5.75,2.28,3.96-4.12,6.63-5.83,10.47-3.16,7.1-8.23,14.05-2.31,21.85,4.03,5.31,12.08,4.95,22.46-.3,4.7-2.37,9.18-5.13,12.94-8.79,2.59-2.51,4.05-2.01,6.22.54,22.25,26.13,44.62,52.17,66.94,78.25,1.32,1.54,3.49,3.12,2.11,5.38ZM540.15,530.85c-4.85,1.38-7-1.86-9.39-4.64-22.5-26.25-45.12-52.4-67.39-78.84-4.42-5.24-7.6-6.11-12.57-.99-5.34,5.49-11.96,9.34-19.32,11.61-2.69.83-5.87,1.48-8.27-.61-2.86-2.49-2.01-6.11-.79-8.81,7.11-15.75,18.77-26.82,35.28-32.42,2.94-1,5.83-.73,8.95,1.05,18.4,10.51,34.96,23.84,53.57,34.09,5.92,3.26,8.17,11.44,10.23,18.13,5.53,17.93,12.93,35.28,15.83,54.05,1,6.44-.05,8.63-6.14,7.37ZM564.32,527.81c-4.28-.04-8.76.48-9.3-5.5-1.49-16.31-8.15-31.17-12.79-46.61-2.18-7.27-4.72-14.34-8.37-20.99-1.53-2.79-2.55-5.49.78-7.4,2.8-1.61,5.78-2.15,8.58.66,4.49,4.49,8.07,9.56,10.79,15.27,8.75,18.38,13.25,37.8,14.18,58.1.18,2.96,1.32,6.52-3.87,6.47ZM573.42,493.11c-3.54-18.72-10.36-36-22.92-51.66,19.12-3.76,37.78-7.44,56.44-11.09,29.55-5.78,59.11-11.53,88.65-17.34,3.34-.66,7.64-1.31,6.73-5.88-1.01-5.06-5.47-4.14-8.97-2.96-6.65,2.25-8.63.35-8.04-6.67,2.42-28.96,3.89-58.01,6.8-86.91,1.21-12.04,2.7-24.38,9.44-35.29,4.77-7.72,10.85-13.27,19.51-16.1,9-2.93,18.31-4.41,27.5-6.47,4.16-.94,5.98.73,7.73,4.34,18.68,38.62,37.51,77.17,56.38,115.69,1.98,4.05,2.82,10.48,8.52,9.92,5.78-.56,6.57-6.75,7.52-11.61,8.2-42.33,17.1-84.51,26.23-126.65,1.53-7.05,5.32-9.42,11.49-10.61,15.61-3,31.1-3.15,46.8-.05,14.93,2.95,26.53,10.46,35.7,22.29,14.19,18.3,25.53,38.28,35.42,59.14,6.04,12.75,11.7,25.75,18.63,38.01,10.79,19.07,18.15,39.69,23.32,60.46,11.05,44.41.09,86.64-48.07,108.29-31.02,13.95-61.55,28.96-92.55,42.96-8.75,3.95-17.29,7.94-25.53,12.97-9.51,5.8-13.08,3.64-14.27-7.42-2.27-21.1-4.5-42.08-15.37-61.08-3.91-6.84-7.76-13.69-12.8-19.71-4.05-4.85-3.5-7.27,2.3-10.25,36.77-18.92,73.4-38.1,109.93-57.49,3.53-1.88,11.5-2.7,8.05-8.94-2.86-5.18-7.96.15-11.55,1.93-12.96,6.41-12.89,6.58-16.89-7.21-5.95-20.56-11.88-41.12-17.82-61.68-.51-1.75-.97-3.52-1.64-5.21-.83-2.1-2.3-3.79-4.75-2.92-2.2.78-3.14,2.84-2.59,5.12.92,3.8,2.08,7.55,3.15,11.32,6.17,21.58,12.07,43.24,18.7,64.68,1.68,5.43.04,7.35-4.31,9.61-29.29,15.15-58.47,30.51-87.69,45.79-3.75,1.96-7.83,3.61-7.09,9.06.19,1.43-.49,2.47-1.58,3.34-14.09,11.21-29.06,18.94-47.71,11.95-6.11-2.29-12.06-5.06-18.28-7.03-6.75-2.13-14.45-4.68-19.24,2.85-5,7.85,2.41,12.17,6.73,17.1h0s0,0,0,0c2.7-.43,5.47-2.34,7.99.57,2.29,2.65,3.42,5.33-1.2,6.17-7.13,1.29-14.36,2.14-21.57,2.86-3.39.34-3.64.19-6.33.26,0,0-.79.2-.79.2,0,0-2.17.46-2.17.46-.26.03-2.82.35-3.02.39-7.29,1.64-16.7,2.63-29.51,4.79-28.61,4.81-62.73,11.06-91.44,15.3l.2-2.56-.2-20.09M834.67,571.41c-14.64,5.92-14.12,5.88-17.27-10.15-3.57-18.15-8.09-36.18-18.43-51.96-5.04-7.68,1.29-9.55,5.55-13.22,5.27-4.54,7.27-1.19,10.06,2.71,14.71,20.59,22.21,43.49,22.47,68.81.76,2.15-.32,2.98-2.37,3.81ZM743.85,586.47c2.65-3.68,1.02-6.35-3.58-5.05-2.79.79-5.12.18-7.65-.23-3.21-.52-6.49-1.47-7.26-4.99-.7-3.18,2.06-5.08,4.11-7.09,1.74-1.71,5.47-2.29,4.45-5.67-1.13-3.71-4.34-1.47-6.72-1.63-1.55-.1-3.07-.64-4.59-.99-3.41-.79-6.85-1.81-7.48-5.84-.71-4.45,2.75-6.28,5.83-8.41,2.13-1.48,6.79-.67,6.02-4.78-.63-3.39-4.71-2.52-7.2-3.67-3.92-1.81-11.07-.21-10.73-6.76.29-5.54,6.43-6.07,10.94-7.13,10.67-2.52,21.38-4.82,32.06-7.3,2.67-.62,6.74-.92,5.32-4.91-1.24-3.48-4.49-1.15-6.75-.31-10.61,3.95-23.6-.71-26.44-7.21-.79-1.82-1.79-4.21-.73-6.51,1.05-2.27,3.53-2.48,5.46-2.17,3.84.63,7.7,1.56,11.34,2.93,7.81,2.96,15.5,6.19,23.73,7.94,3.93.84,8.39,1.81,11.63.25,10.12-4.86,13.92.51,18.08,8.51,9.91,19.07,14.98,39.41,18.13,60.45.49,3.29-1.09,4.28-3.3,5.18-16.95,6.88-33.89,13.79-52.58,14.07-2.62,0-5.42.59-7.82-.13-4.01-1.21-8.57-2.53-4.23-8.56ZM1001.95,609.79c-73.68,15.4-147.3,31.12-220.93,46.77-7.16,1.52-14.31,3.07-21.46,4.62-3.64.6-4.51-1.67-4.84-4.58-1.92-17.14-3.78-34.29-5.88-51.41-.36-2.93.44-3.56,3.14-3.61,20.53-.35,39.01-8.53,58.25-14.26,8.63-2.57,17.25-5.35,25.81-8.23,1.76-.59,2.59-.13,3.78,1.42,7.31,9.47,12.31,10.59,23.29,5.17,13.58-6.7,26.93-13.89,40.62-20.37,25.75-12.18,51.72-23.91,77.48-36.06,4.23-2,5.3-.69,6.32,3.19,6.17,23.45,12.46,46.88,18.88,70.26,1.21,4.4.65,6.01-4.48,7.08Z"/>
    <path class="cls-1" d="M738.96,401.25c.47,3.39,1.19,7.35,5.85,6.76,4.24-.54,3.89-4.2,3.58-7.84-2.09-14.84-4.24-30.1-6.37-45.37-.47-3.34-1.52-6.76-5.51-6.12-3.87.62-4.06,4.18-3.61,7.53,2.03,15.01,3.98,30.03,6.07,45.04Z"/>
    <path class="cls-1" d="M343.22,169.04c1.21-4.54-.32-9.65-4.28-10.01-4.99-.46-1.71,4.57-2.02,7.22,1.91,1.36,3.44,3.58,6.3,2.79ZM339.06,162.39c1.81,2.38,2.21,2.92,2.56,4.89-.96-.97-2.02-1.71-3.53-1.42.26-1.18-.14-2.54.98-3.48Z"/>
    <path class="cls-1" d="M800.2,172.13c2.9-2.54,8.16-1.4,9.47-5.64.72-2.34-1.9-2.51-3.88-2.57-3.71.43-7.14,1.72-8.37,5.69-.53,1.73,1.76,3.42,2.78,2.52Z"/>
  </g>
  <rect class="cls-6" x="227.5" y="666.61" width="669.22" height="36.77"/>
  <rect class="cls-1" x="325.2" y="661.25" width="313.6" height="5.78"/>
  <circle class="cls-2" cx="196.52" cy="70.96" r="60.08"/>
  <circle class="cls-2" cx="931.12" cy="97.15" r="62.94"/>
  <g>
    <path class="cls-4" d="M189.86,91.09c-11.38-9.45-21.33-20.07-28.23-33.26-1.48-2.84-1.79-6.15-3.88-8.7v-9.33c4.48-7.44,8.9-9.15,18.05-6.72,6.89,1.83,12.88,5.51,18.75,9.4-1.64,1.17-3.28,2.35-4.93,3.52-5.03-4.09-10.81-6.7-17.09-8.12-7.21-1.63-10.57,1.73-8.96,8.95,1.39,6.24,4.24,11.86,8.24,16.89.95,1.54,1.84,3.12,3.28,4.3,5.18,7.84,12.35,13.78,19.44,19.79-1.4,1.31-2.88,2.51-4.67,3.28Z"/>
    <path class="cls-5" d="M189.86,91.09c1.79-.77,3.27-1.97,4.67-3.28,3.08-2.59,6.26-5.08,9.21-7.82,1.5-1.39,2.33-.54,3.13.47.65.83,2.77,1.37,1.05,2.96-10.06,9.36-20.64,17.91-34.61,20.96-6.96,1.52-12.25-.67-15.56-7.06v-9.33c2.41-3.08,2.63-7.14,4.75-10.36.91-1.39,1.7-2.85,2.56-4.31,3.24,2.52,3.93,5.04,1.57,8.57-1.85,2.77-2.84,6.1-3.28,9.46-.8,6.17,2.4,9.13,8.55,7.89,6.62-1.33,12.53-4.25,17.96-8.17Z"/>
    <path class="cls-5" d="M189.63,46.01c1.64-1.17,3.28-2.35,4.93-3.52,6.91-4.46,13.89-8.7,22.22-10.19,9.71-1.73,16.25,4.5,14.6,14.13-1.04,6.08-3.6,11.55-6.98,16.68-3.56-2.2-3.84-4.68-1.67-8.22,2.08-3.4,3.38-7.3,3.36-11.41-.02-4-1.99-6.08-6.04-5.94-7.89.26-14.41,3.99-20.6,8.42-1.7.71-3.16,1.75-4.36,3.14-6.57,4.35-11.9,10.02-17.08,15.83-.94,1.06-1.94,2.08-2.91,3.11-1.44-1.17-2.33-2.76-3.28-4.3,5.37-6.47,11.41-12.27,17.82-17.72Z"/>
    <path class="cls-4" d="M195.09,49.08c1.2-1.38,2.66-2.42,4.36-3.14,11.88,9.58,21.96,20.63,28.75,34.37,1.97,3.99,3.29,8.17,3.35,12.64.1,7.52-4.3,11.85-11.93,11.67-7.28-.16-13.53-3.27-19.68-6.81,2.37-3.19,4.76-3.99,8.28-1.78,3.19,2,6.94,3.02,10.77,3.33,5.01.4,7.41-1.89,7.09-6.85-.37-5.7-2.96-10.67-5.86-15.45-5.91-9.74-13.52-18.04-22.26-25.37-.99-.83-1.91-1.74-2.86-2.61Z"/>
    <path class="cls-4" d="M194.91,78.6c-5.68.1-10.34-4.29-10.48-9.86-.14-5.65,4.23-10.23,9.89-10.39,5.75-.16,10.46,4.1,10.64,9.62.18,5.9-4.19,10.53-10.05,10.63Z"/>
  </g>
  <g>
    <polygon class="cls-5" points="927.34 129.85 914.73 142.07 908.81 136.32 921.41 124.12 927.34 129.85"/>
    <polygon class="cls-4" points="939.27 118.29 933.25 124.12 951.78 142.07 957.8 136.25 939.27 118.29"/>
    <polyline class="cls-5" points="930.27 70.43 911.75 52.48 905.82 58.22 924.35 76.17"/>
    <polygon class="cls-4" points="942.12 70.43 936.19 64.7 948.8 52.48 954.72 58.22 942.12 70.43"/>
    <polygon class="cls-5" points="947.63 98.72 924.35 76.17 936.19 76.17 959.47 98.72 945.19 112.56 939.27 106.82 947.63 98.72"/>
    <polygon class="cls-4" points="918.43 81.9 924.35 87.65 915.99 95.75 939.27 118.29 927.25 118.29 904.05 95.83 918.43 81.9"/>
  </g>
  <path class="cls-3" d="M190.8,618.72c-10.34,45.77-20.69,91.55-31.03,137.32"/>
</svg>