<?xml version="1.0" encoding="UTF-8"?>
<svg id="Capa_1" xmlns="http://www.w3.org/2000/svg" viewBox="0 0 223.85 66.04">
  <defs>
    <style>
      .cls-1 {
        fill: #423a8f;
      }

      .cls-2 {
        fill: #4f338b;
      }

      .cls-3 {
        fill: #0f4881;
      }
    </style>
  </defs>
  <polygon class="cls-1" points="16.73 56.55 7.67 65.38 3.42 61.23 12.47 52.4 16.73 56.55"/>
  <polygon class="cls-2" points="25.31 48.19 20.99 52.4 34.31 65.38 38.63 61.18 25.31 48.19"/>
  <line class="cls-3" x1="1.27" y1="4.76" x2="5.53" y2=".6"/>
  <polyline class="cls-1" points="18.85 13.58 5.53 .6 1.27 4.76 14.59 17.74"/>
  <polygon class="cls-2" points="27.36 13.58 23.1 9.44 32.16 .6 36.42 4.76 27.36 13.58"/>
  <polygon class="cls-1" points="31.32 34.04 14.59 17.74 23.1 17.74 39.83 34.04 29.56 44.05 25.31 39.89 31.32 34.04"/>
  <polygon class="cls-2" points="10.33 21.88 14.59 26.03 8.58 31.89 25.31 48.19 16.67 48.19 0 31.95 10.33 21.88"/>
  <g>
    <path class="cls-1" d="M51.31.78h14.09c9.26,0,13.3,4.71,13.3,11.36,0,4.8-2.14,8.69-6.97,10.39l7.32,12.23h-7.37l-6.62-11.31h-6.27v11.31h-7.47V.78ZM71.03,12.13c0-3.06-1.79-5.05-5.88-5.05h-6.37v10.05h6.37c4.08,0,5.88-1.99,5.88-5Z"/>
    <path class="cls-1" d="M82.98,28.05c0-5.58,4.68-6.79,9.16-7.43l4.38-.63c2.39-.34,3.14-.73,3.14-2.14v-.34c0-2.67-1.79-3.4-4.03-3.4s-4.43.73-4.43,3.35v.49h-6.82v-1.16c0-4.95,3.39-7.76,11.45-7.76s10.96,2.72,10.96,8.2v17.52h-6.92v-4.46h-.3c-.5,1.36-2.59,4.95-8.27,4.95-4.23,0-8.32-1.99-8.32-7.18ZM99.66,25.96v-2.81c-.4.58-1.64.78-2.79.97l-3.64.63c-2.24.34-2.99,1.41-2.99,2.72,0,1.55,1.05,2.72,3.54,2.72,3.44,0,5.88-2.23,5.88-4.22Z"/>
    <path class="cls-1" d="M122.67,0h3.88v5.39h-2.14c-2.24,0-2.99,1.26-2.99,3.2v.92h4.98v5.44h-4.98v19.8h-7.27V14.95h-3.69v-5.44h3.69v-1.65c0-5.63,3.39-7.86,8.52-7.86Z"/>
    <path class="cls-1" d="M128.39,28.05c0-5.58,4.68-6.79,9.16-7.43l4.38-.63c2.39-.34,3.14-.73,3.14-2.14v-.34c0-2.67-1.79-3.4-4.03-3.4s-4.43.73-4.43,3.35v.49h-6.82v-1.16c0-4.95,3.39-7.76,11.45-7.76s10.96,2.72,10.96,8.2v17.52h-6.92v-4.46h-.3c-.5,1.36-2.59,4.95-8.27,4.95-4.23,0-8.32-1.99-8.32-7.18ZM145.08,25.96v-2.81c-.4.58-1.64.78-2.79.97l-3.64.63c-2.24.34-2.99,1.41-2.99,2.72,0,1.55,1.05,2.72,3.54,2.72,3.44,0,5.88-2.23,5.88-4.22Z"/>
    <path class="cls-1" d="M157.12,22.08c0-9.42,6.12-13.05,13-13.05s12.3,3.4,12.3,12.96c0,.92-.05,1.41-.15,1.94h-18.23c.4,4.22,2.64,5.92,6.22,5.92,3.34,0,4.78-1.31,5.38-3.35h6.42c-1.29,5.78-5.88,8.74-11.9,8.74-6.57,0-13.05-3.54-13.05-13.15ZM175.55,19.75c-.1-2.91-1.64-5.34-5.63-5.34-3.39,0-5.38,1.84-5.88,5.34h11.5Z"/>
    <path class="cls-1" d="M187.6.78h7.27v33.97h-7.27V.78Z"/>
    <path class="cls-1" d="M200.05,28.05c0-5.58,4.68-6.79,9.16-7.43l4.38-.63c2.39-.34,3.14-.73,3.14-2.14v-.34c0-2.67-1.79-3.4-4.03-3.4s-4.43.73-4.43,3.35v.49h-6.82v-1.16c0-4.95,3.39-7.76,11.45-7.76s10.96,2.72,10.96,8.2v17.52h-6.92v-4.46h-.3c-.5,1.36-2.59,4.95-8.27,4.95-4.23,0-8.32-1.99-8.32-7.18ZM216.73,25.96v-2.81c-.4.58-1.64.78-2.79.97l-3.64.63c-2.24.34-2.99,1.41-2.99,2.72,0,1.55,1.05,2.72,3.54,2.72,3.44,0,5.88-2.23,5.88-4.22Z"/>
  </g>
  <g>
    <path class="cls-1" d="M51.2,58h1.7c.21,3.64,2.95,6.47,8.84,6.47s8.34-2.59,8.34-6.31-2.9-5.42-6.76-6.15l-3.69-.73c-5.39-1.09-7.55-3.68-7.55-7.16,0-4.12,2.99-7.16,9.38-7.16s9.5,2.99,9.5,6.87h-1.7c-.21-2.83-2.36-5.3-7.8-5.3s-7.59,2.35-7.59,5.58c0,2.87,1.83,4.81,6.39,5.7l3.73.73c4.4.85,7.88,2.75,7.88,7.56s-3.44,7.93-10.16,7.93c-7.14,0-10.5-3.64-10.5-8.05Z"/>
    <path class="cls-1" d="M76.3,55.12c0-7.36,4.81-10.92,10.08-10.92s10.12,3.56,10.12,10.92-4.81,10.92-10.12,10.92-10.08-3.56-10.08-10.92ZM94.8,55.12c0-6.55-4.15-9.46-8.42-9.46s-8.38,2.91-8.38,9.46,4.11,9.46,8.38,9.46,8.42-2.91,8.42-9.46Z"/>
    <path class="cls-1" d="M107.34,36.69h1.78v1.46h-1.29c-2.53,0-3.53.69-3.53,3.32v3.15h4.69v1.42h-4.69v19.61h-1.7v-19.61h-2.9v-1.42h2.9v-3.6c0-3.4,2.12-4.33,4.73-4.33Z"/>
    <path class="cls-1" d="M115.64,61.55v-15.49h-3.36v-1.46h3.36v-5.14h1.7v5.14h4.31v1.46h-4.31v15.04c0,2.63,1,3.36,3.4,3.36.54,0,.91,0,1.33-.08v1.33c-.58.12-1.16.2-1.87.2-2.61,0-4.56-.97-4.56-4.37Z"/>
    <path class="cls-1" d="M125.47,44.61h1.74l5.64,19.13h.17l6.68-19.13h1.58l6.68,19.13h.17l5.64-19.13h1.74l-6.43,21.03h-1.99l-6.6-18.84-6.68,18.84h-1.95l-6.39-21.03Z"/>
    <path class="cls-1" d="M158.33,60.5c0-3.07,1.83-5.22,6.68-5.74l5.85-.65c2.61-.32,3.4-.93,3.4-1.62v-1.42c0-3.92-1.99-5.46-6.47-5.46s-6.47,1.58-6.47,4.53v.49h-1.7v-.57c0-4.12,3.19-5.86,8.21-5.86,5.43,0,8.13,1.98,8.13,7v14.44h-1.66v-4.08h-.12c-.71,1.5-3.65,4.49-9,4.49-4.19,0-6.85-1.86-6.85-5.54ZM174.27,58.64v-4.41c-.08.57-1.04,1.01-3.57,1.29l-5.27.61c-4.23.44-5.39,2.1-5.39,4.29,0,3.19,2.61,4.21,5.48,4.21,5.93,0,8.75-4.17,8.75-5.98Z"/>
    <path class="cls-1" d="M182.23,44.61h1.7v4.49h.08c.46-1.66,2.49-4.73,7.09-4.73.58,0,1.2.04,1.58.2v1.42c-.41-.08-.91-.12-1.45-.12-5.02,0-7.3,3.52-7.3,7.64v12.13h-1.7v-21.03Z"/>
    <path class="cls-1" d="M195.68,55.21c0-7.52,4.23-11,9.63-11s9.25,3.6,9.25,10.07c0,.69-.04,1.09-.12,1.37h-17.05c.12,5.86,2.99,8.94,8.26,8.94,2.61,0,5.68-.73,7.01-4.33h1.62c-1.58,4.61-5.14,5.78-8.67,5.78-6.22,0-9.92-3.76-9.92-10.84ZM212.94,54.24c-.04-5.78-3.15-8.57-7.59-8.57s-7.8,2.71-7.97,8.57h15.56Z"/>
  </g>
</svg>