<?xml version="1.0" encoding="UTF-8"?>
<svg id="LOGO" xmlns="http://www.w3.org/2000/svg" xmlns:xlink="http://www.w3.org/1999/xlink" viewBox="0 0 860.5 795.05">
  <defs>
    <style>
      .cls-1 {
        fill: #1d1d1b;
      }

      .cls-2 {
        fill: #fff;
      }

      .cls-3 {
        fill: #403c90;
      }

      .cls-4 {
        fill: #4e358c;
      }

      .cls-5 {
        fill: #ededed;
      }

      .cls-6 {
        fill: #302865;
      }
    </style>
    <filter id="drop-shadow-1" filterUnits="userSpaceOnUse">
      <feOffset dx="0" dy="2.83"/>
      <feGaussianBlur result="blur" stdDeviation="2.83"/>
      <feFlood flood-color="#575755" flood-opacity=".5"/>
      <feComposite in2="blur" operator="in"/>
      <feComposite in="SourceGraphic"/>
    </filter>
  </defs>
  <path class="cls-1" d="M392.97,431.05c-.73-1.71-1.95-.6-3-.51,1.05-2.62,2.84-4.36,6.41-5.37-.6,2.81-1.92,4.39-3.41,5.89Z"/>
  <path class="cls-1" d="M392.69,433.3c.17-3.48-1.16-7.11,1.03-10.39.08,3.51.73,7.07-1.03,10.39Z"/>
  <path class="cls-1" d="M393.04,430.07c-.57-.58-1.15-1.15-1.72-1.73.76-1.26,2.3-2.82,3.21-1.95,1.43,1.37-.5,2.59-1.49,3.67Z"/>
  <path class="cls-3" d="M5.4,604.25c7.1-17.43,9.33-25.31,28.08-29.52,8.23-1.85,4.94-5.35,13.32-2.52,1.16.39,26.48-1.43,27.72-1.44,65.96-.76,123.76,1.16,189.72.36,63.21-.76,108.69,2.04,171.9,1.26,1.9-.02,8.72-.83,10.62-.9,8.56-.39,10.08,1.85,18.54.18,1.65-.33,22.25-1.35,23.58,0,39.94-.06,80.4,3.15,120.33,2.21,32.32-.76,64.67,0,97-1.2,6.76-.25,13.35-1.17,20.01-2.1,24.06-3.35,52.9,10.44,59.56,37.63,3.98,16.22-2.24,30.15-11.36,43.08-5.09,7.22-11.95,12.5-19.88,16.23-3.29,1.55-15.01,4.74-15,8.5.11,34.03-.48,66.05-.48,100.08,0,1.87-1.26,7.09-.72,8.88,1.24,4.13,2.94,3.24,0,6.48-13.97,0-17.77,1.91-31.74,1.91-4-2.51-3.25-6.61-3.26-10.31-.08-31.74-.04-63.48-.05-95.22q0-11.78-11.86-11.8c-51.19-.1-102.38,1-153.55,1.69-33.84.46-74.27-2.84-108.06-1.3-35.97,1.64-70.06-.83-105.96.78-33.86,1.52-66.53-.72-100.32.84-35.54,1.64-71.05-.76-106.56.36-14.79.47-27.68,1.19-42.48.36-6.9-2.11-18.56-3.14-25.2-1.44-20.35-1.38-30.09-12.26-42.84-29.16-3.12-4.14-1.79-3.36-2.88-8.28,0-10.58,1.8-25.06,1.8-35.64Z"/>
  <path class="cls-3" d="M58.41,790.13c-1.91-3.76-1.62-7.91-1.76-11.92-1.07-29.86-2.05-59.73-3.05-89.6-.06-1.83-.32-3.7.78-5.35,5.69-2.03,11.35-4.49,17.44-1.48,2.1,7.38,2.26,14.93,2.16,22.55-.32,24.48,1.72,48.87,2.67,73.31.21,5.38-.5,9.59-5.12,12.49h-13.12Z"/>
  <path class="cls-5" d="M317.94,564.73c-3.03,3.66-6.14,5.27-10.85,2.14-2.6-1.73-6.21-.57-9.34-.43-24.47,1.09-48.94,2.08-73.39,3.49-10.16.58-20.13-1.07-30.19-1.49-4.79-.2-6.05-3.54-5.98-7.97.2-13.73-.11-27.47.32-41.19.63-20.33-2.56-40.44-3.1-60.71-.17-6.19,1.02-9.76,7.77-10.14,6.73-.37,13.43-1.34,20.16-1.64,30.17-1.33,60.35-2.34,90.51-3.88,7.89-.4,10.85,3.96,12.92,10.18,2.42,2.69,2.78,5.64,2.49,9.31-1.3,16.42-1.02,32.89-.13,49.31.17,3.22-.13,6.26-.45,9.38-.48,4.67.23,9.25,1.09,13.82.09,2.98.09,5.96-.03,8.94-1.04,4.56.26,9.11.06,13.68.04,2.57-.16,5.08-1.84,7.21Z"/>
  <path class="cls-5" d="M469.98,572.75c-8.17-5.9-6.26-12.27-6.49-23.09-.59-27.79-3.09-55.54-4.65-83.32-.51-9.05-.18-9.71,8.82-11.17,8.07-1.31,16.33-1.52,24.51-2.17,6.3-.5,12.61-.92,18.91-1.38,5.49-1.34,11.18.49,16.66-1.03,1.22-.08,2.43-.15,3.65-.23,2.43-.92,4.96-.26,7.43-.46,3.55-.18,6.94-1.27,10.41-1.9,2.47-.53,4.98-.45,7.49-.49,2.48,0,4.96.02,7.44,0,2.81.03,5.62.13,8.33-.85,4.7-.63,9.41-.54,14.13-.16,2.56.59,4.87,1.58,6.35,3.92.53,4.85.71,9.71.47,14.59-1.24,5.72-.38,11.51-.6,17.26-.12,4.05.24,8.12-.41,12.15-1.13,3.13-.87,6.4-.88,9.64-.02,3.31-.01,6.62.01,9.92,0,2.27,0,4.54.01,6.81-.71,5.31,1.63,10.99-1.93,15.94h.03c-1.54,8.46.51,17.07-1.09,25.52-1.77,3.87-4.66,5.09-9,5.33-24.97,1.42-49.91,3.25-74.86,4.93-7.93.74-14.21-.66-23.03-.84-2.84-.06-10.17,2.59-11.7,1.08Z"/>
  <path class="cls-3" d="M592.17,465.5c.25-4.64-1.88-9.25-.14-13.91-.61-1.93-.51-3.8.47-5.6,4.46-5.42,6.45-12.78,12.78-16.74,7.08-9.03,14.26-17.98,21.17-27.14,2.66-3.53,5.62-5.24,10.12-5.21,16.48.11,32.97-.14,49.45-.15,1.6,0,3.71-.15,4.57,1.59,1.02,2.06.96,5.84-.12,7.19-11.6,14.42-25.04,26.47-36.84,40.73-2.05,2.48-2.77,4.91-2.98,8.04-2.38,35.06,2.58,70.6,2.02,105.67-.16,10.04-4.12,10.04-14.06,9.62-12.46-.53-24.95-.14-37.43-.17-3.88,0-7.8-.03-9.03-4.99-.54-22.81-1.95-45.61-.56-68.43.25-4.06.05-8.11.13-12.17.27-6.1-.55-12.24.44-18.32Z"/>
  <path class="cls-3" d="M319.13,455.16c.02-3.6,1.5-6.51,3.68-9.32,11.13-14.3,22.19-28.66,33.13-43.11,2.07-2.73,4.25-4.42,7.76-4.72,14.09-1.21,28.44.52,42.62,1.05,3.27.12,6.2-2.71,7.68.83,1.41,3.37-.91,5.64-2.69,7.99-10.69,14.1-21.33,28.24-32.15,42.24-1.94,2.51-2.83,4.93-2.82,8.13.17,32.42.21,64.85.29,97.27,0,1.07-.04,2.15.06,3.22,1.04,11.13.88,11.3-10.41,11.31-12.9,0-25.8-.07-38.7.11-3.35.05-5.76-.83-7.16-3.99-1.62-2.55-1-5.42-1.08-8.17-.48-17.99.47-36.01-1.15-53.98.03-16.3-.93-32.61.93-48.87Z"/>
  <path class="cls-5" d="M543.99,146.91c-6.04-3.09-10.55-7.59-12.94-14.04-1.75-4.7-4.44-7.76-10.11-7.83-4.89-.06-7.62-3.06-9.22-8.01-4.23-13.08-5.13-26.81-8.39-40.06-.35-1.42-.51-2.9-.93-4.3-2.69-9.13-2.28-9.83,7.13-9.82,30.03.05,60.06.24,90.09.25,5.19,0,7.46,2.18,6.93,7.3-.15,1.47-.05,3.03-.51,4.4-4.49,13.41-7.21,27.27-10.67,40.95-2.15,8.51-5.8,11.4-14.43,10.87-5.74-.35-9.11,1.36-11.05,6.83-1.66,4.68-5.28,8.03-9.2,10.98-4.64,4.89-10.22,5.72-16.71,2.49Z"/>
  <path class="cls-5" d="M286.07,147.41c-9.44-1.89-15.2-7.61-17.51-16.87-.37-1.47-.64-3.34-2.14-3.64-9.11-1.81-9.72-9.9-11.62-16.41-3.71-12.7-4.91-26-8.89-38.7-1.98-6.33.22-8.55,6.77-8.6,29.57-.22,59.1,1.97,88.67,1.27,6.06-.14,7.58,2.58,5.61,8.43-4.52,13.44-5.72,27.57-8.41,41.38-2.11,10.83-4.28,12.27-15.24,11.73-4.57-.23-8.19,1.73-9.9,6.3-1.66,4.44-4.32,8.14-8.06,11.04-5.74,4.62-11.73,8.05-19.28,4.06Z"/>
  <path class="cls-5" d="M319.16,402.32c-6.98,2.96-14.52,3.07-21.83,3.4-13.3.6-26.66.58-39.97.12-13.83-.48-20.54-8.82-20.69-22.67-.3-28.12-1.28-56.23-1.78-84.35-.16-9.27-.31-18.6,2.13-27.69,1.24-4.61,4.1-7.74,8.67-9.34,2.3-.8,4.16-.63,5.42,1.65,1.16,2.1.28,4.15-1.43,4.92-6.26,2.85-6.36,8.29-6.52,13.88-.87,30.89.45,61.74,1.37,92.6.12,4.11,1.64,4.75,5.28,4.82,22.62.48,45.23,1.23,67.85,1.86,3.61.1,7.62-2.23,10.5,1.88,1.89,1.93,1.66,4.35,1.57,6.74-1.36,5.94-5.39,9.58-10.61,12.18Z"/>
  <path class="cls-5" d="M541.55,447.92c-1.19-.02-2.38-.05-3.57-.07-8.49-1.55-17.14.47-25.63-1.08-12.91-2.25-15.15-4.78-15.14-17.96,0-8.02.04-16.07.66-24.06,1.13-14.38-1.14-28.65-.92-43.02.23-15.27,2.37-30.28,3.87-45.38.26-2.61,1.39-4.89,3.03-6.86,1.25-1.5,2.82-2.75,4.92-1.44,1.84,1.14,2.29,2.78,1.71,4.91-6.47,23.73-6.3,47.93-4.78,72.18.76,12.08-.71,24.06-.86,36.09-.05,3.96.79,5.32,5.2,5.39,25.11.41,50.2,2.5,75.33.42,1.4-.12,2.87.56,4.3.86,3.48,5.81-.48,10.87-1.62,16.22-.81,1.29-1.93,2.14-3.44,2.43-5.21,1.07-10.58.41-15.81,1.39-2.1.04-4.22-.1-6.26.6-2.17.08-4.35.03-6.52.04-4.79-1.02-9.78,2.29-14.48-.66Z"/>
  <path class="cls-3" d="M317.95,403.86c2.22-4.3,8.45-7.81,10.27-12.45,1.43-2.64-.02-5.65,1.08-8.34,1.99-32.74.23-65.66-2.41-98.33-.53-6.5-1.4-10.64-7.29-15.12-2.05-1.56-2.49-1.86-.99-4.14,1.36-2.07,5.6-.68,7.83-.18,9.04,2.03,13.96,2.94,14.73,12.23,3,36.47,3.77,72.99,1.89,109.54-.57,11.07-4.98,17.53-12.98,19.43-4.37,1.04-10.22,3.23-12.12-2.66Z"/>
  <path class="cls-4" d="M543.99,147.01c5.79.66,11.48.63,16.71-2.59,3.34,3.68,3.53,8.46,3.57,12.98.23,25.88.19,51.77.3,77.66.02,3.7-.4,7.04-3.97,8.95-1.36,1.98-3.24,2.31-5.38,1.86-1.97-2.19-5-1.1-7.21-2.53-2.09-2.12-2.79-4.74-2.88-7.74-.67-22.35-1.38-44.71-2.18-67.06-.15-4.15-.66-8.3-1.2-12.42-.45-3.42-.4-6.58,2.24-9.12Z"/>
  <path class="cls-3" d="M585.9,448.91c1.8-7.38,2.81-29.53,1.98-35.1,2.18-18.32,2-17.65,1.44-36-.49-16.06-.83-36.23-.81-52.29,0-3.7-6.04-10.33-8.64-13.23-2.03-2.26,2.91-2.77,6.26-5.2,3-2.18,6.28-.78,8.53,1.66,3.39,3.67,4.55,8.34,5.39,13.26,6.01,35.42,5.39,71.15,5.24,106.86-3.81,5.59-6.86,11.71-11.65,16.62-2.59,1.53-6.38,6.81-7.74,3.42Z"/>
  <path class="cls-3" d="M560.92,243.77c7.06,1.43,9.69,6.8,11.24,12.87,4.11,16.18-8.35,31.28-24.44,29.77-8.34-.78-15.96-5.95-17.6-11.94-2.25-8.24,1.07-18.45,8.1-23.16,4.32-2.9,9.16-5.05,13.76-7.54.92-.57,1.94-.42,2.94-.4,1.99.18,4.05-.58,5.99.4Z"/>
  <path class="cls-3" d="M302.89,200.12c12.36,5.74,15.89,13.18,12.29,25.92-2.85,10.11-15.15,18.22-26.01,17.15-9.68-.96-15.49-4.98-16.89-11.68-2.23-10.68,2.32-23.03,10.07-27.31,2.2-1.21,4.4-2.41,6.6-3.61,1.69-1.05,3.48-1.91,5.28-2.76,3.27-.65,6.23-.16,8.67,2.3Z"/>
  <path class="cls-4" d="M286.07,152.33c7.02,1.42,13.07-1.64,19.28-3.94,1.52,1.84,2.14,4.04,2.18,6.31.25,13.32.41,26.64.6,39.96.05,3.53-1.66,5.81-5.16,6.82-2.78,1.21-5.68-.03-8.51.38-1.06-.03-2.18.25-3.04-.65-3.15-1.24-5.18-3.58-5.31-6.78-.52-12.87-.83-25.74-1.12-38.62-.03-1.16.7-2.33,1.08-3.49Z"/>
  <path class="cls-5" d="M543.72,320.99c-3.77-.19-8.01.36-12.14-.88-3.71-1.11-5.8-3.49-5.37-7.43.44-4.02,3.11-5.7,6.98-5.81,7.54-.21,15.09.96,22.61-.96,2.85-.73,5.41.81,6.16,4.05.89,3.85.07,7.14-3.61,9.22-4.48,2.53-9.41,1.78-14.64,1.81Z"/>
  <path class="cls-5" d="M283.48,275.38c-4.35-.16-8.41.51-12.29-.77-4.2-1.38-7.14-4.07-6.35-8.84.8-4.81,4.77-3.57,8.07-3.64,6.52-.13,13.03-.57,19.55-.67,3.78-.06,7.44.73,7.86,5.43.44,4.97-2.61,7.34-7.13,7.91-3.33.42-6.72.41-9.72.57Z"/>
  <path class="cls-1" d="M676.11,766.66c2.85-16.53.96-33.19,1.17-49.79.07-5.58-4.68-8.07-9.26-10.08,3.75-2.12,6.44.14,8.96,2.36,2.43,2.14,4.11,5.01,4.53,8.18,1.92,14.48,1.53,29.03.55,43.54-.2,2.91-2.01,5.54-4.91,6.99-1.12.27-1.48-.12-1.05-1.2Z"/>
  <path class="cls-3" d="M678.51,715.77c-.33-5.22-4.63-8.72-10.49-8.98-12.43-.07-24.87-.31-37.3-.15-9.19.12-13.99,4.57-14.06,12.76-.12,13.09-.15,26.18.1,39.27.16,8.44,2.64,10.57,10.64,12.18,6.33,1.27,12.72.59,18.89.28,8.29-.41,16.7,2.5,24.86-.73,2.71-1.03,5.27-2.24,6.6-5.05,3.01-16.47,1.8-33.07.75-49.57ZM672.44,738.84h-.06c0,6.77-.06,13.54.02,20.31.05,3.95-1.35,6.67-5.58,6.94-13.09.83-26.19.8-39.27.04-5.88-.34-5.83-5.31-5.91-9.45-.19-10.79-.07-21.58-.05-32.37.02-11.41,1.65-13.39,13.08-13.23,10.33.14,20.68-.97,31,.69,5.24.84,7.11,3.5,6.84,8.67-.32,6.12-.07,12.27-.07,18.4Z"/>
  <path class="cls-3" d="M647.53,728.54c-4.63,0-9.26.03-13.89-.02-1.95-.02-4.24-.24-4.07-2.77.17-2.59,2.62-2.24,4.46-2.25,8.84-.03,17.69-.04,26.53.01,1.79.01,4.3-.41,4.01,2.53-.24,2.46-2.49,2.47-4.41,2.48-4.21.03-8.42,0-12.63,0Z"/>
  <path class="cls-3" d="M646.99,734.89c5.07.38,10.12.73,15.17,1.14,1.51.12,3.17.39,2.92,2.45-.22,1.78-1.66,2.39-3.27,2.27-9.89-.77-19.77-.51-29.66-.04-1.64.08-2.94-.64-2.95-2.52,0-1.67,1.31-2.01,2.61-2.12,5.05-.42,10.1-.79,15.17-1.18Z"/>
  <path class="cls-3" d="M646.94,751.63c-4.63,0-9.27.04-13.9-.02-1.65-.02-3.68.03-3.6-2.41.06-1.89,1.83-2.3,3.25-2.32,9.68-.11,19.37-.13,29.05-.07,1.5,0,3.02.67,2.94,2.6-.08,2.02-1.7,2.16-3.2,2.17-4.84.04-9.69.01-14.53.01,0,0,0,.02,0,.03Z"/>
  <g>
    <path class="cls-1" d="M387.41,674.86c0-.11,0-.2,0-.26,0,.04,0,.13,0,.26Z"/>
    <path class="cls-1" d="M799.94,31.72c-.23-17.42,0-17.38-17.56-17.5-45.49-.3-90.97-.64-136.46-1-3.9-.03-7.65.5-9.37-4.97-1.17-3.7-4.74-5.64-9.57-5.62-50.76.22-101.53.23-152.3.01-6.15-.03-9.65,2.56-11.46,7.77-.85,2.44-1.98,3.53-4.39,3.61-3.78.12-7.51.59-11.36.39-9.24-.46-18.51-.27-27.77-.29-10.5-.03-21.01-.03-31.51.01-2.64.01-4.42-.85-5.1-3.63C380.91,1.46,374.25-.14,366.14.02c-27.91.55-55.81,2.13-83.75,1.43-20.73-.52-41.45-.95-62.18-1.43-7.13-.17-13.04,1.64-15.2,9.41-.9,3.26-3.08,3.88-6.16,3.9-14.81.07-29.61.42-44.42.51-33.64.21-67.29.37-100.93.44-5.2,0-8.12.88-7.99,7.37.19,9.05-.12,18.12.11,27.19.15,5.97,1.93,8.53,7.83,8.53,7.62,0,15.24-.1,22.85-.26,39.98-.84,79.95-1.71,119.93-2.55,2.37-.05,4.74-.87,5.97,2.8,4.06,12.09,6.88,13.72,19.27,12.11,6.01-.78,9.87.86,11.81,7.32,4.01,13.33,6.09,27.09,9.71,40.5,2.93,10.84,6.8,13.77,17.96,13.33,1.9-.07,4.24-.65,4.86,1.73,1.71,6.62,5.25,11.88,10.64,16.01,1.38,1.06.91,2.73.96,4.16.49,14.16.85,28.33,1.46,42.49.15,3.43-.71,5.94-3.38,8.23-4,3.43-6.34,8.15-6.6,13.29-.18,3.61-2.09,4.54-4.69,5.61-8.38,3.46-16.55,7.35-24.53,11.66-9.28,5.01-13.33,13.14-14.16,23.21-.87,10.53-1.64,21.07-2.39,31.6-.51,7.16-1.26,14.33-1.29,21.5-.02,5.71,1.55,11.4,8.15,12.64,3.99.75,4.29,2.57,4.28,5.84-.11,22.01.02,44.01-.14,66.02-.03,3.74,1.13,6.24,3.92,8.7,7.68,6.77,16.91,5.81,25.89,5.41,19.44-.87,38.9-1.12,58.29.04,12.2.73,22.32-5.65,24.11-17.83.7-4.75.3-9.68.31-14.52.02-18.54,0-37.09,0-55.83,11.33,4.05,16.77.21,17.06-11.49.04-1.68-.19-3.37-.33-5.06-1.45-16.84-3.28-33.65-4.18-50.52-.41-7.62-4.43-12.27-10.03-15.77-7.13-4.46-14.75-8.15-22.24-12-5.89-3.03-11.26-6.14-11.66-13.95-.12-2.28-1.94-4.7-3.52-6.6-1.62-1.95-2.15-3.9-2.2-6.32-.33-14.59-.7-29.18-1.26-43.77-.13-3.26.54-5.62,3.43-7.44,4.84-3.05,7.91-7.47,9.26-13.1.63-2.63,1.76-4.42,5.23-4.05,13,1.39,16.95-5.19,19.01-15.16,2.59-12.57,5.43-25.12,8.98-37.45,2.58-8.97,3.86-9.22,13.36-8.06,9.9,1.21,14.07-1.14,17.54-10.76,1.08-3,2.82-3.1,5.25-3.03,21.52.61,43.03.65,64.55-.04,3.69-.12,5.64.87,6.93,4.68,2.56,7.61,6.42,9.55,14.05,7.7,2.34-.57,4.6-.39,6.9-.56,4.34-.31,6.68.98,7.85,5.79,3.48,14.32,7.69,28.46,11.52,42.69,2.55,9.47,4.98,11.37,14.65,10.77,1.86-.11,4.34-1.31,5.4.36,4.6,7.26,8.81,14.77,13.14,22.19.09.16.01.42.02.63.43,27.71.8,55.43,1.33,83.14.11,5.79.32,11.16-5.8,14.62-1.96,1.11-3.79,3.93-4.1,6.19-1.34,9.74-8.56,13.66-16.05,17.67-5.02,2.68-9.67,6.07-14.72,8.69-7.02,3.64-10.62,9.34-11.53,17-2.32,19.5-4.63,39-7.07,58.48-.24,1.89.25,3.26,1.17,4.71,3.55,5.63,8.71,5.92,14.18,4.24v66.55c-5.22-6.09-9.28-11.2-13.75-15.94-4.28-4.54-7.17-10.56-13.43-13.08-14.76-1.12-29.53-.18-44.3-.51-2.5-.06-3.38,1.17-3.43,3.42.3,3.43,2.67,5.68,4.69,8.08,8.44,10.03,16.71,20.21,25.48,29.95,4.28,4.76,5.69,9.88,5.69,16.15-.01,23.25-.66,46.5,1,69.74.74,10.32.03,20.72.2,31.08.08,4.83-1.76,6.83-6.71,6.79-19.45-.14-38.91-.05-58.37-.05-3.64,0-6.37-.91-6.18-5.23.32-7.01-1.57-13.86-1.35-20.86.77-24.74-2.08-49.41-1.29-74.15.03-.84.07-1.72-.14-2.53-1.43-5.49.9-9.68,4.08-13.97,10.44-14.11,21.61-27.67,31.68-42.05.95-2.26,1.49-4.59,1.47-7.05.5-3.97-2.29-3.8-4.89-3.88-16.49-.51-32.98-.91-49.46-1.61-3.62-.15-5.78,1.15-7.95,3.86-10.96,13.7-22.14,27.23-33.14,40.89-2.1,2.61-4.19,3.92-7.87,3.91-26.02-.03-52.03.24-78.05.56-3.46.04-5.93-.97-8.27-3.54-10.67-11.73-21.52-23.31-32.31-34.94-1.86-2.01-3.59-3.96-6.81-4.03-12.26-.3-24.51-.87-36.77-1.23-2.2-.07-4.98-.92-6.13,1.93-1.07,2.67,1.28,4.27,2.69,5.98,9.43,11.41,18.77,22.89,28.5,34.04,4.11,4.71,5.95,9.52,5.92,15.89-.14,34.26.05,68.53.48,102.79.07,5.28-1.63,6.21-6.4,6.18-42.09-.27-84.18-.15-126.27-.53-12.61-.12-22.96,4.36-32.15,12.44-10.87,9.56-15.26,22.42-18.27,35.97-1.11,5.88-1.39,11.76.11,17.63,2.84,17.93,11.91,31.28,28.56,39.16,6.32,2.99,12.86,5.36,19.68,6.78,2.96.62,3.93,2.05,3.42,4.79-1.6,8.6-.77,17.26-.78,25.91-.02,25.39.07,50.78-.08,76.17-.03,4.84,1.28,6.75,6.54,6.38,7.15-.51,14.53-.96,21.52.25,5.87,1.02,5.87-1.27,5.86-5.49-.09-32.37-.06-64.75-.08-97.12,0-3.29.46-6.65-2.39-10.58,6.24,0,11.28.02,16.32,0,139.22-.79,278.43-1.6,417.65-2.36,59.67-.33,119.33-.44,179-.96,4.91-.04,5.82.99,5.8,5.63-.2,34.7-.09,69.4-.13,104.1,0,2.97.11,5.89,1.09,8.71h2.54c6.42-1.42,12.93-.29,19.38-.66,7.91-.46,15.87.96,23.74-.73,2.24-2,1.56-4.65,1.56-7.13,0-35.97.03-71.94-.02-107.92,0-3.12.03-5.5,3.91-6.7,10.44-3.23,18.64-10.02,25.18-18.47,11.99-15.48,15.74-33.35,8.2-51.26-7.07-16.8-27.5-34.68-52.97-34.47-22.64.19-45.28.34-67.92.48-9.85.06-10.06.02-10.33-9.71-.99-34.68-1.78-69.37-2.79-104.05-.11-3.69,1.02-6.26,3.57-8.9,11.92-12.31,23.63-24.83,35.39-37.29,4.12-4.37,2.28-10.58-3.58-11.87-1.83-.41-3.79-.34-5.69-.34-14.81.05-29.61.18-44.42.18-5.93,0-10.46,2.16-14.02,7.07-4.3,5.93-9.09,11.51-13.67,17.24-1.66-18.72-3.67-37.01-3.22-55.56,11.13,2.4,16.24-1.77,15.14-12.18-1.96-18.48-4.07-36.94-6.42-55.37-.93-7.23-4.56-12.91-11.28-16.61-8.13-4.48-15.94-9.55-24.01-14.16-2.76-1.58-4.56-3.4-5.13-6.67-1.06-6.05-4.19-10.99-9.1-14.72-1.9-1.45-2.94-2.76-2.87-5.65.69-28.34,1.12-56.69,1.45-85.04.06-4.98.22-9.4,4.78-12.8,2.48-1.85,3.5-5.21,4.38-8.29,1.39-4.86,3.83-7.19,9.6-6.49,9.19,1.11,12.1-1.47,14.44-10.22,3.59-13.42,7.24-26.82,10.91-40.22,2.42-8.82,4.07-9.88,13.09-8.65.62.08,1.21.39,1.82.52,8.59,1.77,13.68-1.27,14.87-9.76.53-3.77,1.98-4.36,5.25-4.28,17.77.46,35.54.73,53.31,1.09,31.31.64,62.61,1.29,93.92,1.97,5.6.12,7.92-2.35,7.79-8.05-.13-5.87.22-11.74.14-17.63ZM201.12,26.44c-.36,6.33-.5,12.7-.2,19.02.23,4.92-1.37,6.46-6.42,6.52-32.98.37-65.97.94-98.94,1.74-15.41.37-30.8,1.06-46.61.76,0-8.98.16-17.62-.06-26.26-.13-4.82,1.42-6.47,6.54-6.47,39.33,0,78.66-.31,117.99-.57,7.4-.05,14.81.05,22.18-.47,4.72-.34,5.77,1.45,5.52,5.72ZM216.2,7.72c18.16-.32,36.31.13,54.47.96,30.64,1.4,61.23-1.2,91.86-1.29,10.8-.03,13.14,1.08,14.89,8.44.18.76-.08,1.63-.13,2.45-18.06-5.79-36.48-2.81-54.6-3.16-31.68-.62-63.38.03-95.07.02-6.79,0-13.44.31-19.69,3.47-.87-7.68,1.29-10.76,8.27-10.89ZM235.57,270.81c-2.79,4.81-3.75,9.69-3.25,15.55.91,10.7.25,21.54.23,32.32,0,1.04,0,2.3-1.38,2.4-2.07.15-3.67-.87-4.72-2.62-2.24-3.72-1.11-7.82-1.39-13.04,1.24-15.17,2.49-31.59,3.97-47.98.71-7.93,4.71-13.85,11.97-17.38,7.57-3.68,15.13-7.38,22.74-10.98,1.89-.9,4.41-1.94,4.55,1.6.11,2.75,6.1,5.21.43,8.25-5.94,3.19-11.87,6.37-17.71,9.74-6.68,3.86-11.48,9.31-12.97,17.1-.38,2-1.54,3.4-2.48,5.03ZM244.26,330.65h-.06c0-14.58.3-29.17-.12-43.74-.22-7.83,4.59-12.87,8.41-18.56,1.22-1.82,3.46-1.26,5.32-1.09,1.77.16,1.45,1.65,1.65,2.88,1.37,8.37,5.3,12.41,13.54,13,5.88.43,11.84.38,17.73.01,7.22-.45,11.47-4.1,13.29-10.59,1.7-6.03,5.95-7.43,11.02-3.59,7.6,5.76,9.52,14.26,10.29,22.93,2.5,28.22,3.43,56.48,1.65,84.79-.2,3.21-.83,4.4-4.21,4.38-24.72-.12-49.44-.14-74.16,0-3.78.02-4.46-1.42-4.43-4.79.15-15.21.07-30.43.07-45.64ZM264.68,268.73c.64-2.26,2.73-1.54,4.3-1.57,4.44-.08,8.89-.03,13.33-.03,4.66,0,9.32.14,13.96-.04,3.77-.15,4.37,1.44,3.22,4.63-1.25,3.47-3.43,5.71-7.15,6.37-6.94,1.23-13.87,1.36-20.81,0-2.36-.46-4.4-1.45-5.94-3.34-1.49-1.82-1.48-3.96-.9-6.02ZM257.69,262.88c-4.28-.13-8.53-1.76-13.53-.03,1.79-4.92,5.03-7.35,8.35-9.52,3.51-2.3,7.37-4.05,10.95-6.25,6.67-4.11,12.87-7.11,20.92-1.95,5.35,3.43,12.05,1.72,17.5-1.41,3.08-1.77,4.98-1.31,7.68.46,6.86,4.5,13.91,8.73,20.99,12.87,3.29,1.93,5.49,4.42,6.15,7.97-26.24-4.59-52.69-1.32-79-2.12ZM254.1,403.84c-12.17-.11-15.58-3.83-15.59-16.11-.01-31.11-.33-62.23.22-93.33.13-7.48-1.53-15.6,3.09-22.62,2.53-1.8,2.55-1.8,2.99.51-1.44,2.22-2.76,4.48-2.89,7.22-.22.59-.5,1.14-.5,1.81-.06,32.46-.01,64.92-.02,97.38,0,.87.18,1.66.74,2.34,2.68,1.61,5.63,1.46,8.61,1.45,24.13-.07,48.25.05,72.38-.19,5.43-.05,5.9,1.78,4.36,6.33-3.36,9.92-10.27,15.15-20.72,15.16-17.56.02-35.12.19-52.69.03ZM340.46,389.59c-.08,11.46-7.46,17.36-20.41,16.32,11.68-9.49,10.35-22.12,10.76-34.55.85-25.59.36-51.12-1.49-76.63-.71-9.73-2.5-19.22-8.62-27.92,3.26.74,6.58,1.27,9.76,2.25,7.02,2.17,10.09,5.98,10.11,13.31.08,35.74.16,71.48-.1,107.22ZM315.06,227.71c10.62,6.03,21.21,12.07,31.82,18.08,4.35,2.46,5.69,6.61,6.06,11.14,1.48,18.06,2.86,36.13,4.26,54.19.07.84.05,1.69-.03,2.53-.3,3.03-.73,6.13-4.68,6.34-3.52.19-4.86-2.46-5.24-5.24-.94-6.83-1.79-13.7-2.16-20.59-.5-9.36.7-18.76-2.86-27.96-2.2-5.66-4.16-10.72-10-13.75-6.52-3.39-12.55-7.72-18.98-11.31-3.2-1.78-4.37-3.2-1.67-6.46,1.53-1.85,2.24-4.39,3.49-6.98ZM310.26,222.12c.08,11.01-8.04,19.33-18.97,19.44-10.92.11-19.49-8.19-19.57-18.97-.09-11.14,8.25-19.3,19.75-19.35,10.53-.04,18.71,8.17,18.79,18.87ZM302.58,170.57c.08,2.53.01,5.06.01,7.59h.64c0,5.69-.28,11.4.09,17.06.27,4.11.55,6.71-4.92,4.28-4.06-1.81-8.66-2.32-12.98-.78-3.39,1.21-3.61-.77-3.7-3-.53-13.06-.95-26.13-1.5-39.19-.1-2.44,1.06-2.88,3.06-2.68,1.05.11,2.1.14,3.16.19,5.17.26,12.2-2.34,14.98,1.2,2.63,3.35.99,10.08,1.16,15.32ZM348.67,76.81c-4.47,12.26-6.01,25.32-9.27,37.93-.79,3.04-1.46,6.18-2.78,8.99-2.31,4.93-7.07,4.83-11.5,4.43-5.83-.53-8.8,1.66-10.39,7.47-2.64,9.68-9.59,14.23-19.89,14.05-6.26-.11-12.72.89-18.16-3.64-3.51-2.92-6.22-6.17-7.14-10.82-.99-5.03-3.9-7.3-9.4-7.12-10.76.34-11.87-.55-14.58-11.33-2.91-11.63-5.45-23.35-7.9-35.09-.69-3.29-4.69-6.87-2.1-9.44,1.75-1.74,6.43-.6,9.8-.61,15.64-.03,31.28-.01,46.92-.01,0,.02,0,.04,0,.05,17.54,0,35.08.08,52.62-.06,4.19-.03,5.52.35,3.76,5.19ZM378.94,31.87c-.7,9.24-.21,18.57-.22,27.86,0,5.63-2.84,7.87-8.39,7.6-48.76-2.44-97.56-.17-146.34-1.1-3.33-.06-6.68.91-10.03,1.03-6.83.26-10.12-4.56-7.34-10.78.54-1.22,2.4-1.89,1.16-3.67-6.15-8.8-1.98-18.46-.95-27.29.61-5.2,8.68-6.36,14.53-6.38,23.66-.06,47.32-.03,70.99-.03v-.02c23.03,0,46.05,0,69.08,0,2.96,0,5.85.17,8.73,1.14,5.66,1.91,9.32,4.53,8.78,11.63ZM460.06,26.36c-.45,6.94-.5,13.92-.41,20.88.06,4.36-1.1,6.19-6.05,6.23-10.73.1-21.46.26-32.19-.2-10.94.44-21.87.53-32.82.12-3.49-.13-4.74-1.03-4.73-4.67.02-7.38-.32-14.77-.82-22.13-.27-4.05,1.26-4.92,5.11-4.8,22.29.73,44.59.74,66.88-.06,3.78-.14,5.31.45,5.03,4.62ZM474.87,10.16c49.35.19,98.7.1,148.05.12,7.84,0,10.28,3.32,8.66,11.57-2.08,1.93-4.69,1.75-7.2,1.65-32.47-1.26-64.97-.39-97.42-1.44-17.92-.58-35.84-.49-53.75-1.08-2.7-.09-5.57.36-7.65-2.06-.09-6.31,2.79-8.78,9.3-8.76ZM489.03,359.97c-.35,2.54-1.06,3.24-3.37,3.24-3.79.01-4.3-2.68-4.78-4.7,1.84-15.85,3.53-30.96,5.36-46.05,2.88-23.8,1.18-19.29,22.27-32.03,2.71-1.64,5.71-2.92,8.12-4.91,4.67-3.87,7.41-3.57,9.69,2.54,1.12,3,1.29,4.33-1.67,5.86-5.81,3-11.37,6.49-17.2,9.44-5.93,3-9.52,7.54-10.52,14.08-2.69,17.5-5.45,34.99-7.89,52.52ZM534.24,327.72c5.7.18,11.41-.03,17.11.13,6.07.17,9.33-2.67,10.55-8.57,1.8-8.68,5.29-9.58,13.34-5.38,8.45,4.42,11.51,11.52,11.69,20.15.31,15.2.09,30.42.09,45.63-.46,0-.93,0-1.39,0,0,15.42-.09,30.84.07,46.26.04,3.56-1.01,4.74-4.64,4.56-23.2-1.16-46.41-2.22-69.63-3.12-4.22-.16-5.64-1.48-5.6-5.93.21-24.3-.06-48.6.11-72.9.06-7.79.88-15.58,1.53-23.35.38-4.5,2.16-8.43,4.99-12.08,2.23-2.88,4.94-1.99,7.45-1.71,2.53.29,2.01,2.8,2.16,4.62.75,8.85,3.31,11.41,12.18,11.7ZM526.73,313.51c.33-3.69,3.58-1.63,5.53-1.62,3.36.02,6.71.45,9,.63,4.44,0,7.83-.22,11.17.09,1.85.17,5.29-1.82,5.21,2.06-.06,3.13.06,7.34-4.38,8-7.52,1.12-15.15,1.04-22.62-.38-4.84-.92-4.21-5.45-3.91-8.77ZM586.25,447.79c5.11-8.75,2.8-18.11,3.05-27.18.64-24.08,1.14-48.17,1.62-72.25.26-12.91.84-25.93-9.71-36.18,11.66-2.9,15.04-.18,17.25,10.94,4.04,20.41,3.55,41.13,4.94,61.72.86,12.64.86,25.33,1.53,37.98.2,3.87-.76,7.02-3.29,9.77-4.81,5.24-7.48,12.62-15.39,15.19ZM583.59,568.93c-38.25-.22-76.51-.08-114.77.18-4.12.03-6.24-.94-6.59-5.09-.16-1.88-.63-3.75-.65-5.62-.36-33.6-.55-67.2-1.12-100.79-.09-5.17,1.44-6.12,6.28-5.86,19.2,1,38.46.16,57.66,2.97,19.65,0,39.3.04,58.94-.04,3.3-.01,5.34.1,5.42,4.56.65,34.01,1.47,68.03,2.59,102.03.2,6.19-1.71,7.69-7.77,7.66ZM506.36,312.81c-1.57,1.25-1.31,3.13-1.64,4.81-1.14,2.53.24,5.35-.94,7.87-.08,1.61-.17,3.21-.25,4.82-1.4,3.36.32,7.03-1.03,10.39-.02,28.1-.02,56.2-.07,84.31,0,3.13.4,4.68,4.53,4.82,25.75.83,51.48,2.18,77.22,3.25,3.13.13,3.19,1.13,2.48,3.86-1.98,7.6-4.46,9.56-12.17,10.14-21.11,1.57-42.21,1.67-63.33.52-6.6-.36-13.61-8.32-13.62-15.04-.02-30.84,1.35-61.66.71-92.51-.16-7.88,1.98-15.83,3.35-23.7.33-1.92.85-4.2,3.05-5.25,1.47-.32,2.05.26,1.72,1.73ZM426.82,407.72c13.11,0,25.03.02,36.95-.02,1.76,0,2.6,1.17,3.55,2.28,9.22,10.72,18.45,21.43,27.66,32.16.95,1.11,2.34,2.35,1.85,3.82-.73,2.2-2.9,1.07-4.38,1.06-9.92-.02-19.84-.22-29.76-.32-1.46-.02-2.88.28-4.02-1.09-10.37-12.38-20.78-24.73-31.85-37.89ZM322.76,448.47c12.07-14.69,24.03-29.47,36.01-44.23,1.34-1.65,2.45-3.34,5.03-3.22,15.77.76,31.6.22,48.3,1.98-8.09,10.76-15.1,21.61-23.64,31.05-11.57,12.79-16.32,26.42-14.85,44.07,2.34,27.97,1.91,56.16,2.96,84.25.19,5.1-1.29,6.45-6.28,6.32-14.57-.38-29.16-.35-43.74-.22-3.61.03-4.73-1.03-4.77-4.64-.34-36.35-.83-72.71-1.32-109.06-.03-2.46.72-4.38,2.3-6.31ZM277.01,449.78c11.2-.12,22.41.03,33.6-.17,3.44-.06,4.82.78,4.85,4.54.31,36.56.74,73.12,1.33,109.67.07,4.5-2.19,4.6-5.49,4.58-19.44-.07-38.88-.04-58.31-.04v-.3c-19.44,0-38.89-.13-58.33.1-4.44.05-5.75-1.33-5.75-5.71,0-33.6-.24-67.21-.35-100.81,0-2.92.38-5.84.62-8.75.3-3.62,3.19-1.97,4.79-1.99,27.68-.47,55.36-.82,83.03-1.12ZM154.73,407.9c11.62,0,22.91,0,34.2,0,1.42,0,2.33.9,3.19,1.83,10.6,11.48,21.18,22.97,33.16,35.96-13.49,0-25.06-.02-36.63.02-1.6,0-2.85-.5-3.87-1.73-10.08-12.12-20.17-24.22-30.04-36.08ZM66.28,787.43c-10.9-.54-9.33,1.44-9.24-9.57.23-28.53-.78-57.07.56-85.59.11-2.28-2.29-5.71.99-6.49,3.76-.89,8.02-.51,11.9.2,2.07.38,1.28,3.28,1.29,5.07.06,15.23.03,30.46.03,45.69,0,15.02-.17,30.04.1,45.05.08,4.44-1.13,5.87-5.63,5.64ZM78.46,787.07c-2.6-.19-1.38-3.12-1.38-4.76-.08-30.43-.06-60.86-.06-91.29,0-.85-.03-1.69.04-2.54.09-1.21-.12-2.82,1.68-2.8,1.67.02,1.78,1.5,1.79,2.8.02,6.34.02,12.68.02,19.02,0,9.93,0,19.86,0,29.8,0,15,.06,30.01-.07,45.01-.01,1.7,1.53,5.02-2.02,4.75ZM730.83,787.67c-6.32-.34-12.68-.24-19.02-.02-3.43.12-4.83-.71-4.81-4.51.13-34.03.11-68.06.02-102.09,0-3.19.83-4.48,4.25-4.48,6.75,0,13.52-.3,20.26-.81,3.69-.28,4.63.99,4.59,4.57-.17,17.12-.08,34.24-.07,51.36,0,16.91-.13,33.82.1,50.72.06,4.19-1.17,5.48-5.32,5.26ZM743.22,787.29c-3.2,0-1.9-3.2-1.9-5.01-.08-34-.06-68-.06-102,0-1.06-.03-2.11.05-3.17.1-1.43.78-2.41,2.35-2.32,1.51.09,1.36,1.35,1.42,2.33.08,1.47.04,2.96.04,4.43,0,16.68,0,33.36,0,50.05,0,16.89.05,33.79-.07,50.68-.01,1.77,1.4,5-1.84,5ZM735.94,572.95c21.72-.13,46.15,19.7,49.47,40.06,4.07,25.05-14.98,51.94-40.3,56.12-14.62,2.41-29.4,2.27-44.25,2.02-14.95-.25-29.95.57-44.94.58-89.5.01-179,3.13-268.5,3.13,0,.13,0,.21,0,.26,0-.05,0-.15,0-.26-95.64,0-191.27.02-286.91-.02-16.06,0-32.12-.08-48.17-.48-29.47-.73-51.51-29-45.81-58.53.64-3.31,1.31-6.64,2.34-9.84,7.24-22.38,22.56-33.01,47.95-32.99,89.28.08,178.56.23,267.84.42,41.47.09,82.94.13,124.41.51,61.15.56,122.29.02,183.44-.27,34.48-.17,68.96-.5,103.43-.71ZM627.91,407.6c3.35-4.31,7.19-6.42,12.93-6.3,14.16.29,28.33-.13,42.5-.14,1.97,0,4.7-.8,5.62,1.62.79,2.07-1.61,3.2-2.85,4.53-11.15,11.87-22.25,23.79-33.6,35.47-3.02,3.11-4.38,6.18-4.24,10.58,1.06,34.67,1.89,69.34,2.79,104.01.02.63.05,1.27.06,1.9.17,9.12.16,9.09-9.11,9.15-13.11.08-26.22.08-39.33.39-3.85.09-5.68-.65-5.79-4.99-.49-19.02-1.27-38.03-1.95-57.04-.37,0-.73,0-1.1,0,0-17.12.07-34.25-.07-51.37-.02-2.87.4-5.13,2.3-7.49,10.74-13.33,21.33-26.79,31.84-40.3ZM571.94,276.8c2.15-4.25,3.68-4.99,7.67-2.24,5.55,3.82,11.34,7.42,17.38,10.4,8.31,4.09,12.75,9.94,13.55,19.54,1.43,17.02,3.9,33.96,5.93,50.88-.1,1.77.04,3.51-.36,5.11-.63,2.59-2.8,2.79-5.05,2.7-2.57-.11-2.05-1.94-2.3-3.61-2.59-17.3-5.2-34.6-7.97-51.87-1.11-6.9-4.78-11.79-11.49-14.69-5.2-2.25-9.79-5.87-14.95-8.24-4.35-1.99-4.49-3.84-2.4-7.97ZM591.38,300.17c2.32,1.36,3.79,3.34,3.44,5.58-30.86,1.79-61.56,1.69-92.26.06.16-2.82,2.28-4.87,5.23-6.52,6.81-3.82,13.55-7.76,20.25-11.77,2.16-1.29,3.82-1.69,6.22-.08,9.56,6.41,19.39,6.4,29.03.11,2.01-1.31,3.47-1.7,5.66-.4,7.42,4.44,14.98,8.64,22.44,13.02ZM570.14,265.06c.06,12-9.62,21.81-21.47,21.77-11.59-.04-20.92-9.26-21.02-20.79-.08-9.36,11.89-21.05,21.31-20.79,9.1.25,21.14,11.51,21.18,19.81ZM538.98,186.52c-.02-10.14,0-20.29-.23-30.42-.08-3.64.37-5.77,4.78-4.43,3.49,1.06,7.15,1.02,10.65,0,4.01-1.17,5.09.12,4.98,4.2-.57,20.69-.91,41.4-1.27,62.1-.12,6.97-.09,13.94-.09,20.92,0,2.38.04,4.06-3.45,2.95-4.45-1.42-9.12-.76-15.35,1,0-19.19.02-37.75,0-56.3ZM603.68,76.83c-4.12,13.9-7.84,27.93-11.55,41.96-1.17,4.41-3.44,6.2-8.12,5.62-8.91-1.1-12.52.31-14.87,8.8-3.62,13.1-16.39,15.82-28.1,12.98-5.87-1.42-9.38-5.04-11.48-10.63-4-10.65-5.54-11.62-17.21-11.08-3.59.17-5.52-1.16-6.44-4.51-4.14-15-8.32-29.99-12.5-44.99-.82-2.94-.03-4.15,3.29-4.06,7.6.21,15.21.07,23.19.07,26.21,2.03,52.79.08,79.37-.07,5.33-.03,5.82,1.18,4.41,5.92ZM633.01,56.68c.09,5.64-2.35,8.53-8.06,8.69-23.65.65-47.3,1.68-70.94,1.64-26.81-.05-53.61-1.07-80.41-1.72-7.02-.17-9.27-2.51-9.22-9.49.07-8.66.6-17.32.31-25.96-.17-5.04,1.78-6.05,6.24-5.7,4.4.34,8.86-.04,13.29-.1,5.19.16,11.78.35,14.67.47,31.98,1.28,45.22,1.11,77.22,1.07,2.49,0,14.22,0,19.48.09,9.86,1.38,19.82,1.31,29.68.88,6.68-.29,8.09,1.94,7.7,7.99-.47,7.35-.07,14.76.05,22.15ZM792.94,51.21c-.3,2.92-1.14,3.49-3.7,3.43-8.03-.17-16.07-.1-24.1-.27-39.94-.83-79.88-1.8-119.83-2.44-5.59-.09-7.98-1.43-7.41-7.42.52-5.44.44-11.02-.07-16.47-.54-5.74,1.23-7.59,7.2-7.43,23.03.62,46.07.72,69.11,1.02.63,0,1.27,0,1.9,0v.25c23.68,0,47.36.1,71.04-.09,4.23-.03,6.1.9,5.97,5.48-.23,7.97.72,15.93-.1,23.94Z"/>
  </g>
  <path class="cls-5" d="M757.25,336.94c-5.53,1.21-13.36-.1-20.7-2.79-11.3-4.14-21.67-6.37-33.47.03-7.92,4.29-16.97.86-23.28-5.79-6.45-6.8-7.7-15.64-3.66-23.74,3.44-6.88,1.7-11.23-1.95-17.24-33.55-55.22,4.8-132.68,69.2-141.46,39.28-5.35,91.91,12.08,110.51,61.99,8.51,22.86,9.67,46.56-1.83,68.35-19.36,36.7-49.18,59.18-94.83,60.66Z"/>
  <circle class="cls-2" cx="759.64" cy="238.52" r="81.81"/>
  <g>
    <polygon class="cls-4" points="754.72 281.03 738.33 296.91 730.63 289.45 747.01 273.58 754.72 281.03"/>
    <polygon class="cls-3" points="770.23 266 762.41 273.58 786.49 296.91 794.31 289.35 770.23 266"/>
    <polyline class="cls-4" points="758.54 203.79 734.45 180.46 726.75 187.92 750.83 211.25"/>
    <polygon class="cls-3" points="773.93 203.79 766.23 196.34 782.62 180.46 790.31 187.92 773.93 203.79"/>
    <polygon class="cls-4" points="781.09 240.56 750.83 211.25 766.23 211.25 796.49 240.56 777.92 258.55 770.23 251.09 781.09 240.56"/>
    <polygon class="cls-3" points="743.14 218.71 750.83 226.17 739.96 236.7 770.23 266 754.6 266 724.45 236.81 743.14 218.71"/>
  </g>
  <circle class="cls-2" cx="80.28" cy="624.29" r="25.92"/>
  <circle class="cls-2" cx="166.68" cy="624.29" r="25.92"/>
  <circle class="cls-2" cx="259.56" cy="624.29" r="25.92"/>
  <circle class="cls-2" cx="347.76" cy="624.29" r="25.92"/>
  <circle class="cls-2" cx="434.16" cy="624.29" r="25.92"/>
  <circle class="cls-2" cx="527.04" cy="624.29" r="25.92"/>
  <circle class="cls-2" cx="622.8" cy="624.29" r="25.92"/>
  <circle class="cls-2" cx="709.2" cy="624.29" r="25.92"/>
  <path class="cls-5" d="M162.59,164.8c6.96,2.49,13.82,5.11,20.2,9.02,24.18,14.82,33.46,47.02,20.54,72.23-3.06,5.97-6.51,11.29-3.77,18.95,2.17,6.05-1.54,11.58-6.87,15.27-5.15,3.56-11.01,3.47-15.58-.13-5.34-4.21-10.25-2.87-16.04-2.03-25.05,3.62-47.76-.57-64.43-21.83-17.6-22.46-15.27-54.26,4.73-74.65,6.67-6.8,14.26-11.3,23.11-14.17,1.74-.56,11.86-3.03,15.5-2.82,9.58-.8,11.93-.86,22.6.16Z"/>
  <circle class="cls-2" cx="145.41" cy="221.84" r="48.95"/>
  <path class="cls-6" d="M158.4,210.05c1.62-1.71,3.09-3.6,4.89-5.09,2.84-2.35,6.04-2.5,8.78.06,2.81,2.62,2.93,5.98.31,8.67-9.65,9.91-19.42,19.71-29.34,29.36-2.83,2.75-6.38,2.7-9.34-.11-4.23-4.01-8.37-8.14-12.37-12.39-2.81-2.99-2.8-6.3.22-9.17,2.86-2.71,5.87-2.17,8.71.24.49.42.92.91,1.39,1.36q6.72,6.35,13.42.5c.88-.09,1.43-.54,1.54-1.45,0,0-.16.15-.16.15.89-.07,1.37-.55,1.44-1.44,0,0-.14.15-.14.14.89-.07,1.37-.55,1.44-1.44,0,0-.14.14-.14.14.89-.07,1.37-.55,1.44-1.44,0,0-.14.14-.14.14.89-.07,1.37-.55,1.44-1.44,0,0-.14.14-.14.14.89-.07,1.37-.55,1.44-1.44,0,0-.14.14-.14.14.89-.07,1.37-.55,1.44-1.44,0,0-.14.14-.14.14.89-.07,1.37-.55,1.44-1.44,0,0-.14.14-.14.14.89-.07,1.37-.55,1.44-1.44,0,0-.13.17-.13.17.99-.17,1.4-.84,1.53-1.76Z"/>
</svg>