<?xml version="1.0" encoding="UTF-8"?>
<svg id="Capa_1" xmlns="http://www.w3.org/2000/svg" viewBox="0 0 47.94 47.94">
  <defs>
    <style>
      .cls-1 {
        fill: #3c3c3b;
      }
    </style>
  </defs>
  <path class="cls-1" d="M47.84,21.91c-.35-4.21-1.74-8.04-4.13-11.52-2.17-3.16-4.95-5.65-8.3-7.48-2.4-1.31-4.96-2.2-7.68-2.6-.81-.12-1.63-.17-2.45-.26-.06,0-.11-.03-.17-.04h-2.29c-.32.03-.65.07-.97.1-2.37.2-4.66.75-6.86,1.64-1.85.75-3.57,1.71-5.18,2.89-1.74,1.27-3.28,2.76-4.62,4.44-1.64,2.07-2.91,4.34-3.8,6.83-.58,1.63-1,3.3-1.19,5.02-.06.56-.1,1.12-.16,1.68,0,.07-.03.15-.05.22v2.29c.03.32.07.63.1.95.2,2.5.8,4.89,1.77,7.2,1.3,3.09,3.17,5.78,5.59,8.09,2.85,2.71,6.18,4.6,9.96,5.69,1.29.37,2.6.63,3.94.75.44.04.88.07,1.32.11.07,0,.13.03.19.04h2.24c.32-.03.65-.07.97-.1,2.77-.22,5.42-.94,7.94-2.1,2.78-1.28,5.22-3.04,7.33-5.26,1.6-1.68,2.93-3.56,3.98-5.63,1.11-2.18,1.88-4.48,2.27-6.9.14-.85.19-1.72.29-2.58.01-.1.03-.2.05-.3v-2.24c-.03-.31-.07-.61-.1-.92ZM38.35,30.52c0,.85-.13,1.69-.5,2.48-.56,1.17-1.53,1.78-2.77,2.02-.5.09-1.01.15-1.52.15-3.22.01-6.44,0-9.66,0s-6.3,0-9.46,0c-.75,0-1.49-.08-2.2-.32-1.4-.48-2.2-1.49-2.48-2.92-.11-.53-.16-1.08-.16-1.62-.01-4.29,0-8.58,0-12.87,0-.8.13-1.59.46-2.33.56-1.24,1.56-1.92,2.86-2.17.5-.1,1.01-.15,1.52-.15,6.38,0,12.76,0,19.15,0,.78,0,1.56.1,2.29.39,1.3.51,2.03,1.5,2.31,2.83.1.47.16.96.16,1.44.01,4.36.01,8.72,0,13.08Z"/>
  <path class="cls-1" d="M23.94,24.83c2.95-2.95,5.9-5.9,8.82-8.82H15.12c2.96,2.96,5.91,5.91,8.82,8.82Z"/>
  <path class="cls-1" d="M26.72,26.68c-.5.51-1.02.99-1.5,1.52-.31.35-.66.54-1.12.57-.6.05-1.04-.24-1.44-.65-.62-.64-1.26-1.26-1.88-1.88-1.9,1.9-3.79,3.79-5.69,5.69h17.73c-1.89-1.89-3.78-3.78-5.71-5.71-.13.14-.26.3-.41.45Z"/>
  <path class="cls-1" d="M12.79,18.32v11.32c1.89-1.9,3.78-3.79,5.65-5.66-1.88-1.88-3.76-3.77-5.65-5.66Z"/>
  <path class="cls-1" d="M35.16,29.6v-11.27c-1.89,1.89-3.79,3.79-5.63,5.63,1.87,1.88,3.76,3.77,5.63,5.64Z"/>
</svg>