<?xml version="1.0" encoding="UTF-8"?>
<svg id="Capa_1" xmlns="http://www.w3.org/2000/svg" viewBox="0 0 84.51 84.96">
  <defs>
    <style>
      .cls-1 {
        fill: #75ba63;
        stroke: #ededed;
        stroke-miterlimit: 10;
        stroke-width: 5.27px;
      }

      .cls-2 {
        fill: #ededed;
      }
    </style>
  </defs>
  <path class="cls-1" d="M8.14,80.88c.77-3.64,1.21-6.84,2.15-9.89.84-2.74.48-4.84-1.1-7.31C-1.36,47.2,1.02,26.83,14.85,13.55,28.23.71,49.38-1.01,64.7,9.49c14.76,10.12,20.89,29.16,14.89,46.22-5.95,16.89-22.6,27.88-40.28,26.49-2.23-.18-4.6-.42-6.6-1.32-6.55-2.94-13.07-2.32-19.7-.6-1.4.36-2.89.37-4.87.6Z"/>
  <g>
    <path class="cls-2" d="M38.63,44.62c-.94-.04-1.52-.1-2.1-.09-4.16.03-4.76-.65-4.76-4.76,0-2.61.93-3.77,3.7-3.59,2.95.19,5.95.16,8.9-.07,2.92-.22,3.84,1.1,3.81,3.77-.05,5.44.02,10.88.04,16.33,0,.78,0,1.57,0,2.38,1.39.97,4-.66,4.32,2.45.52,5.08.16,5.64-4.94,5.61-3.46-.03-6.92-.05-10.37,0-3.13.05-3.03-2.04-3.04-4.24-.02-2.19.44-3.73,3.12-3.33.27.04.56-.12,1.06-.24.09-1.24.24-2.51.25-3.78.04-3.44.01-6.89.01-10.43Z"/>
    <path class="cls-2" d="M42.86,18.32c3.27.05,6.08,2.93,5.99,6.14-.09,3.21-3.09,6.2-6.13,6.11-3.34-.1-6.31-3.17-6.19-6.38.12-3.13,3.12-5.92,6.32-5.87Z"/>
  </g>
</svg>