<?xml version="1.0" encoding="UTF-8"?>
<svg id="Capa_1" xmlns="http://www.w3.org/2000/svg" viewBox="0 0 47.58 47.58">
  <defs>
    <style>
      .cls-1 {
        fill: #3c3c3b;
      }
    </style>
  </defs>
  <path class="cls-1" d="M47.48,21.72c-.1-1.4-.35-2.78-.72-4.14-.93-3.43-2.54-6.51-4.86-9.21-3.42-3.98-7.69-6.59-12.81-7.78-1.3-.3-2.62-.49-3.95-.55-.08,0-.15-.03-.23-.05h-2.25c-.31.03-.63.07-.94.1-3.94.32-7.56,1.59-10.87,3.73-2.71,1.75-4.97,3.97-6.78,6.64-1.71,2.52-2.89,5.27-3.54,8.25-.27,1.23-.44,2.47-.49,3.72,0,.08-.03.15-.05.23v2.25c.03.33.08.66.1,1,.18,2.31.73,4.53,1.58,6.68,1.04,2.61,2.5,4.96,4.38,7.06,2.17,2.42,4.73,4.32,7.68,5.7,2.3,1.08,4.72,1.75,7.24,2.06.47.06.94.07,1.41.11.09,0,.19.03.28.05h2.25c.31-.03.61-.07.92-.1,5.09-.43,9.57-2.32,13.43-5.63,3.58-3.06,6.03-6.87,7.36-11.39.39-1.33.68-2.69.8-4.07.04-.49.1-.98.15-1.48v-2.25c-.03-.32-.08-.63-.1-.95ZM32.16,23.73c-.82,1.57-1.57,3.17-2.35,4.75-1.33,2.7-2.67,5.4-4.01,8.1-.61,1.22-1.21,2.45-1.85,3.73-.54-1.09-1.05-2.13-1.56-3.16-1.16-2.33-2.31-4.66-3.47-7-1.03-2.09-2.05-4.18-3.1-6.26-.49-.97-.93-1.96-1.12-3.03-.37-2.07-.15-4.07.84-5.93,1.83-3.44,4.72-5.23,8.63-5.18,3.36.05,5.95,1.62,7.77,4.42.8,1.22,1.23,2.59,1.37,4.05.19,1.96-.24,3.78-1.15,5.52Z"/>
  <path class="cls-1" d="M24.17,14.42c-2.92-.11-5,2.27-4.93,4.85.07,2.4,2.03,4.63,4.83,4.57,2.62-.06,4.59-2.2,4.58-4.7.01-2.54-2.02-4.62-4.49-4.71Z"/>
</svg>