<?xml version="1.0" encoding="UTF-8"?>
<svg id="Capa_1" xmlns="http://www.w3.org/2000/svg" viewBox="0 0 47.52 47.61">
  <defs>
    <style>
      .cls-1 {
        fill: #3c3c3b;
      }
    </style>
  </defs>
  <path class="cls-1" d="M23.76,47.61c-2.2-.11-4.37-.35-6.45-1.02-2.45-.79-4.93-.78-7.45-.49-2.08.24-4.16.44-6.24.62-1.16.1-1.97-.83-1.82-2,.24-1.83.46-3.65.69-5.48.32-2.49-.14-4.86-.97-7.2-2.2-6.24-2.1-12.44.8-18.41C5.87,6.35,11.7,1.84,19.69.38c12.83-2.35,25.28,6.46,27.49,19.33,2.17,12.62-6.06,24.74-18.57,27.3-1.59.32-3.23.41-4.85.6ZM23.12,13.66c.01-3.01-1.66-5.62-4.13-6.59-.68-.27-1.53-.36-2.25-.24-3.05.52-4.76,2.57-5.73,5.36-.96,2.77-.66,5.53.18,8.26,1.53,4.96,4.14,9.34,7.35,13.38,1.95,2.44,4.16,4.56,7.03,5.94,3.43,1.64,6.61,1.21,9.64-.91,1.77-1.24,2.34-3.17,1.6-5.2-.46-1.26-1.24-2.31-2.18-3.26-1.3-1.32-2.89-1.76-4.66-1.33-1.03.25-2.02.65-3.02,1.03-1.88.72-2.66.61-3.9-.96-1.24-1.57-2.42-3.21-3.5-4.89-1.74-2.71-1.36-4.55,1.26-6.43,1.56-1.12,2.22-2.66,2.28-4.15Z"/>
</svg>