<?xml version="1.0" encoding="UTF-8"?>
<svg id="Capa_1" xmlns="http://www.w3.org/2000/svg" viewBox="0 0 47.33 47.38">
  <defs>
    <style>
      .cls-1 {
        fill: #3c3c3b;
      }
    </style>
  </defs>
  <path class="cls-1" d="M46.91,19.3c-.27-1.23-.55-2.47-.96-3.67-.69-2-1.66-3.87-2.91-5.59-.94-1.3-1.93-2.55-3.12-3.61-.98-.87-2.02-1.69-3.09-2.45-1.69-1.19-3.54-2.09-5.5-2.72-1.14-.37-2.31-.65-3.48-.92-.61-.14-1.24-.13-1.86-.2-.11-.01-.21-.09-.31-.14h-3.95c-.08.05-.17.14-.25.15-1.93.05-3.77.57-5.59,1.17-1.37.45-2.68,1.02-3.89,1.8-1.2.77-2.43,1.53-3.54,2.43-1.77,1.42-3.23,3.15-4.5,5.04-1.26,1.87-2.24,3.88-2.88,6.04-.41,1.39-.72,2.83-.89,4.27-.17,1.48-.23,3-.12,4.49.15,2.07.55,4.12,1.25,6.1.82,2.32,1.93,4.5,3.44,6.44.87,1.12,1.82,2.21,2.85,3.18,1.91,1.79,4.09,3.22,6.5,4.28,1.56.69,3.18,1.18,4.84,1.53.81.17,1.65.21,2.47.33.21.03.42.11.63.16h3.4c.47-.08.93-.16,1.4-.25.93-.17,1.87-.28,2.78-.53,1.15-.33,2.29-.73,3.41-1.17,1.51-.59,2.91-1.39,4.23-2.33,1.37-.97,2.67-2.03,3.79-3.28,1.7-1.88,3.11-3.94,4.18-6.25.76-1.66,1.3-3.38,1.68-5.15.18-.82.26-1.67.31-2.51.08-1.24.15-2.49.11-3.73-.04-.97-.2-1.94-.4-2.88ZM31.36,39.25c-.47.05-.94.08-1.42.08-4.29,0-8.58,0-12.87,0-4.49,0-8.4-3.46-8.94-7.91-.05-.38-.07-.76-.07-1.14,0-4.37.02-8.74,0-13.11-.03-4.12,2.79-7.78,6.77-8.82.69-.18,1.42-.27,2.14-.28,2.25-.03,4.5-.01,6.75-.01s4.45,0,6.67,0c4.29,0,8.13,3.27,8.79,7.51.1.61.15,1.23.15,1.84.01,4.32,0,8.63,0,12.95,0,4.46-3.55,8.41-7.98,8.89Z"/>
  <path class="cls-1" d="M36.59,15.16c-.91-2.91-3.39-4.69-6.51-4.7-4.28-.01-8.56,0-12.83,0-1.26,0-2.46.27-3.53.95-2.19,1.37-3.25,3.37-3.25,5.94,0,4.22,0,8.45,0,12.67,0,.47.04.95.12,1.41.48,2.99,3.16,5.38,6.18,5.44,2.3.05,4.61,0,6.91,0h0c2.13.01,4.26.03,6.4,0,.65,0,1.32-.07,1.95-.24,2.78-.73,4.91-3.31,4.89-6.52-.02-4.32,0-8.63-.02-12.95,0-.67-.09-1.37-.29-2.02ZM23.94,32.1c-4.57.19-8.49-3.44-8.67-8.13-.17-4.6,3.38-8.53,8.13-8.7,4.66-.17,8.53,3.45,8.71,8.09.18,4.86-3.68,8.64-8.17,8.74ZM32.69,16.49c-.99,0-1.83-.86-1.81-1.85.02-.99.84-1.79,1.83-1.78,1.01,0,1.8.8,1.8,1.8,0,1.02-.82,1.84-1.82,1.83Z"/>
  <path class="cls-1" d="M23.35,17.7c-3.21.16-5.72,2.92-5.64,6,.04,3.36,2.7,6,5.97,6,3.26,0,6.16-2.68,6.01-6.29-.13-3.14-2.78-5.88-6.34-5.71Z"/>
</svg>