<svg version="1.2" xmlns="http://www.w3.org/2000/svg" viewBox="0 0 86 86" width="86" height="86"><style>.a{fill:#fff}.b{fill:#48ae49}.c{fill:#f6f6f6}</style><path class="a" d="m42.4 85.2c-7.7 0.3-14.7-1.9-21.3-5.6-1.3-0.8-2.5-0.9-3.9-0.4-3.5 1-7.1 1.9-10.7 2.8-3.1 0.8-3.3 0.6-2.5-2.3 1-3.8 2-7.6 3-11.3 0.4-1.4 0.2-2.4-0.5-3.6-10.8-17.9-8-39.7 7.5-53.6 12.7-11.3 27.6-14.1 43.8-8.2 15 5.4 23.9 16.3 27 31.7 2.6 12.5-0.8 23.8-8.3 34.1-7.2 9.9-17.3 14.5-28.9 16.3-1.7 0.3-3.5 0.1-5.2 0.1z"/><path class="a" d="m42.4 85.2c-7.7 0.3-14.7-1.9-21.3-5.6-1.3-0.8-2.5-0.9-3.9-0.4-3.5 1-7.1 1.9-10.7 2.8-3.1 0.8-3.3 0.6-2.5-2.3 1-3.8 2-7.6 3-11.3 0.4-1.4 0.2-2.4-0.5-3.6-10.8-17.9-8-39.7 7.5-53.6 12.7-11.3 27.6-14.1 43.8-8.2 15 5.4 23.9 16.3 27 31.7 2.6 12.5-0.8 23.8-8.3 34.1-7.2 9.9-17.3 14.5-28.9 16.3-1.7 0.3-3.5 0.1-5.2 0.1z"/><path class="b" d="m42.5 77c-6.2 0.3-11.9-1.5-17.2-4.6-1.1-0.6-2-0.6-3.1-0.3-2.9 0.8-5.8 1.6-8.7 2.3-2.5 0.7-2.6 0.5-2-1.9 0.8-3 1.6-6.1 2.4-9.1 0.4-1.1 0.2-2-0.4-2.9-8.7-14.4-6.5-32 6.1-43.2 10.2-9.2 22.3-11.4 35.3-6.7 12.1 4.4 19.3 13.2 21.8 25.6 2.1 10.1-0.7 19.2-6.7 27.6-5.9 8-14 11.6-23.3 13.1-1.4 0.2-2.8 0-4.2 0z"/><path class="c" d="m39.2 44.8c-0.9-0.1-1.5-0.1-2-0.1-4.2 0-4.8-0.7-4.8-4.8 0-2.6 1-3.7 3.7-3.5 3 0.2 5.9 0.1 8.8-0.1 2.9-0.2 3.9 1.1 3.8 3.7 0 5.4 0.1 10.8 0.1 16.2q0 1.2 0 2.4c1.4 1 3.9-0.7 4.3 2.4 0.5 5.1 0.1 5.6-4.9 5.6q-5.2-0.1-10.3 0c-3.1 0-3-2-3.1-4.2 0-2.2 0.5-3.7 3.1-3.3 0.3 0 0.6-0.2 1.1-0.3 0.1-1.2 0.2-2.5 0.2-3.7 0.1-3.4 0-6.9 0-10.4z"/><path class="c" d="m43.4 18.7c3.3 0 6.1 2.9 6 6.1-0.1 3.1-3.1 6.1-6.1 6-3.3-0.1-6.3-3.1-6.1-6.3 0.1-3.1 3.1-5.9 6.2-5.8z"/></svg>