<svg version="1.2" xmlns="http://www.w3.org/2000/svg" viewBox="0 0 68 68" width="68" height="68"><style>.a{fill:#fff}.b{fill:#423a8f}.c{fill:#4f338b}.d{fill:#0f4881}</style><path class="a" d="m10 0h48c5.5 0 10 4.5 10 10v48c0 5.5-4.5 10-10 10h-48c-5.5 0-10-4.5-10-10v-48c0-5.5 4.5-10 10-10z"/><path class="b" d="m31.3 52.6l-7.2 7.1-3.4-3.3 7.3-7.1z"/><path class="c" d="m38.2 46l-3.4 3.3 10.6 10.4 3.4-3.3z"/><path class="d" d="m19 11.4l3.4-3.4"/><path class="b" d="m33.1 18.4l-10.7-10.4-3.4 3.4 10.6 10.2"/><path class="c" d="m39.9 18.4l-3.5-3.4 7.3-7 3.3 3.4z"/><path class="b" d="m43 34.7l-13.4-13.1h6.8l13.4 13.1-8.2 7.9-3.4-3.2z"/><path class="c" d="m26.2 25l3.4 3.3-4.7 4.7 13.3 13h-6.9l-13.3-12.9z"/></svg>