<svg xmlns="http://www.w3.org/2000/svg" xmlns:xlink="http://www.w3.org/1999/xlink" id="Capa_1" x="0px" y="0px" viewBox="0 0 462.9 176" style="enable-background:new 0 0 462.9 176;" xml:space="preserve">
<style type="text/css">
	.st0{fill:#33A8E0;}
</style>
<g>
	<path class="st0" d="M12.2,16c0,0-1.3,4.3,3.8,4.8c0,0,5.1,0.5,5.4,10.8V138c0,0,1.6,13.4-5.1,14c0,0-3.7-0.5-3.6,6.1   c0,0-0.5,6,3.6,5.7h48.4h2.7v-11c0,0-7-0.3-7-11.8c0-11.6,0-115.9,0-115.9s0-4.8,5.6-4.8c0,0,4,1.1,4-4c0,0,0.3-4.3-7-4H20   C20,12.3,12.2,10.9,12.2,16z"></path>
	<path class="st0" d="M73.5,68.9c6.2,2.2,6.1,7.8,6.1,7.8v66.4c0,9.1-5.9,10.7-5.9,10.7c-2,1-1.7,4.6-1.7,4.6c0,5.6,3.8,5.2,3.8,5.2   s36.7,0,41.2,0c4.2,0,3.4-4,3.4-4c0-2.2-2-3.2-2-3.2c-5.2-3-5.7-9.9-5.7-9.9s0-48.7,0-58.6c0-9.8,16.7-9.9,16.7-9.9   c12.7-0.1,15.9,7.9,15.9,7.9s0.1,57,0,63.2s-7.9,7.5-7.9,7.5c-2.6,0.2-2.2,3.5-2.2,3.5c0,4.6,4.6,4.5,4.6,4.5h44.9   c3.5,0,2.8-5,2.8-5c0-3.9-3.5-3.9-3.5-3.9c-5.7-0.1-5.1-7.6-5.1-7.6v-60c0-9.9,16.7-10.1,16.7-10.1c14.8-0.1,15,9.8,15,9.8v59.3   c0.1,8-5,8.8-5,8.8c-2.7,0.2-2.4,3.6-2.4,3.6c0,4.1,4.8,4.2,4.8,4.2h41.1c3.6-0.1,3-4.5,3-4.5c0.1-2.8-2.9-3.5-2.9-3.5   c-3.8,0-4.4-6.1-4.4-6.1V83.1c0-4.3-0.4-6.5-0.4-6.5c-13-20.9-36.6-17.8-36.6-17.8c-15-0.1-32.4,8.1-32.4,8.1H169   c-11-6.9-29.2-6.6-29.2-6.6c-14.1,0-24.5,7.1-24.5,7.1h-3.1v-6.7H111h-3.9H75.3c-4.2,0.2-5.4,0.7-5.2,3.9   C70.2,67.9,73.5,68.9,73.5,68.9z"></path>
	<path class="st0" d="M289.1,163.2c19.7,0,31-7.7,31-7.7c0.6,6.9,4.3,7.8,4.3,7.8H359c2.4-0.1,1.9-4.3,1.9-4.3   c-0.1-3-2.5-3.6-2.5-3.6c-2.9-2.8-3-7-3-7V84c-0.5-20.3-24.2-24.9-24.2-24.9h-68.1L263,84.4l0.5,0.1h14.4   c5.7-12,23.1-11.2,23.1-11.2c16.1-0.2,19.8,7.9,19.8,7.9v8.3l-0.7-0.1C293.4,90.8,279,102,279,102c-21.9,14.4-22,31.1-22,31.1   C254.1,165.2,289.1,163.2,289.1,163.2z M311,108.3l9.1-0.2v27c0,0-5.8,6.6-16,8.1c0,0-14,2.1-13.6-10.8   C290.5,132.4,291.2,115.2,311,108.3z"></path>
	<path class="st0" d="M303.9,137.3c6.8-0.1,10.7-5.7,10.7-5.7v-17.7c-18,4.9-18,18.7-18,18.7C296.5,138.6,303.9,137.3,303.9,137.3z    M308.9,123.5v6c0,0-2.3,2-5.3,2.3C303.6,131.8,300.7,129.1,308.9,123.5z"></path>
	<path class="st0" d="M367.5,163c0,0,38,0.1,42.2,0c4.1-0.1,3.3-4.6,3.3-4.6c-0.1-2.7-2.8-3.3-2.8-3.3c-4.8-0.9-4.5-7.5-4.5-7.5v-70   c0-6.8,5.7-9.1,5.7-9.1c3.5-0.6,3.1-5.3,3.1-5.3c0.1-3.8-4.9-3.6-4.9-3.6h-23.2l-19.9,0.1c-3.9-0.2-3.2,4.5-3.2,4.5   c0.1,4.4,4.2,4.9,4.2,4.9c4.1,0.5,4.3,4,4.3,4s0,68.7,0,75.1c0,6.4-4.2,7.5-4.2,7.5c-3.5,0.3-3,3.8-3,3.8   C364.4,163.1,367.5,163,367.5,163z"></path>
	<path class="st0" d="M449,49.8c-7.7,0-13.9,6.4-13.9,14.2s6.2,14.2,13.9,14.2s13.9-6.4,13.9-14.2S456.7,49.8,449,49.8z M449,75.1   c-6,0-10.9-5-10.9-11.2S443,52.8,449,52.8s10.9,5,10.9,11.2S455,75.1,449,75.1z"></path>
	<path class="st0" d="M454.5,60.4c-0.2-3.9-4-4-4-4l-7.2-0.1V71h2.6v-5.9h2.2l3.2,5.8h2.8v-1.5l-3.1-4.3l-0.1-0.5   C454.8,64.4,454.5,60.4,454.5,60.4z M452.1,60.7c-0.1,2.3-1.7,2.1-1.7,2.1H446v-4.1c0,0,2.9,0,4.6,0   C452.3,58.9,452.1,60.7,452.1,60.7z"></path>
	<path class="st0" d="M412.2,47.3h-45.5c-0.5,0.1-11.1,2-11.9,7.9h-2.4c-1.3-1-11.2-8.2-20.1-8.1h-69.4c-0.1,0-10.5,0.7-11,10v5.4   c-0.8-1-1.7-2-2.6-2.9c-14.1-13.7-40.8-13-41.8-13c-11.7,0-29.1,6.2-34.3,8.2c-9.7-6.3-26.4-6.2-28.8-6.1c-7.7-1-13.9,1-18.4,2.5   c-2.2,0.7-5,1.7-5.6,1.2c-3.4-2.3-10.7-3.6-12.1-3.9h-0.2l-34.2-0.1V31.3c7.8-3.4,9.1-11.9,8.6-16.4c-0.3-7.3-4.2-11-7.4-12.8   C71.4,0.2,68.2,0,67.9,0H17.7v0.2c-2.5,0-8.9,0.4-13.3,4.5C1.4,7.5,0,11.4,0,16.3c0,0.1,0.4,12,9.6,16.3L10.1,138   c0,0,0,3.6-2.1,3.8c-0.1,0-6.6,0.4-6.7,8.6v13.7c0,0.1,1.9,11.9,11,11.9h111l0.2-0.2c0,0,2.7-3.3,5.6-3.1c1.5,0.1,2.9,1.1,4.1,3   l0.1,0.2h57.5h0.3l0.1-0.2c0,0,2.2-3.3,4.7-3.2c1.3,0.1,2.6,1.1,3.6,3.1l0.1,0.3h54.8l0.1-0.1c0.3-0.2,6.8-4,8.2-7.7   c2.5,1.6,13.1,7.4,29,7.2c0.7-0.1,17.8-2.3,21.7-4.3c1,0.9,4.8,3.8,9.6,4.1c5.4,0.3,87.5,0,91.1,0c0.1,0,11.6-1.6,11.8-15.7   c0-0.5,0-12.6-7.4-14.2V79.9c1.4-1,8.6-6.8,8.5-15.8c0-0.3,0.1-8.2-4.7-13.1C419.7,48.5,416.3,47.2,412.2,47.3z M124.3,140.5   l-0.2-46.9c0,0,0.1-4.5,2.9-4.4h5.7c0,0,1.1,0,1.1,1.6l0.9,52.1c0,0-0.5,4.4-4.7,4.4C129.9,147.4,124.7,148.4,124.3,140.5z    M190.3,141l-0.2-46.9c0,0,0.1-4.5,2.9-4.4h5.7c0,0,1.1,0,1.1,1.6l0.9,52.1c0,0-0.5,4.4-4.7,4.4C195.9,147.9,190.6,148.8,190.3,141   z M257.5,95.6l8.7,0.8l-0.1,0.1l-8.6,12l-0.1-12.1L257.5,95.6z M76.1,15.3v0.2c0.1,0.9,0.8,8.9-6.4,10.8l-2.2,0.6v27.6l39.7,0.2   c3,0.5,7.8,1.7,9.5,2.9c3.1,2.1,6.7,0.9,10.9-0.5s9.4-3.2,15.9-2.3h0.3h0.3c5.1-0.2,19.8,0.6,26.7,5.9l1.4,1l1.6-0.6   c0.2-0.1,21.1-8.4,33.7-8.4c0.3,0,25.3-0.6,37.6,11.3c4.4,4.3,6.6,9.7,6.6,16.4l0.3,44.7l0,0l0,0v2l17.8-24.9   c0.2-0.2,0.4-0.4,0.6-0.6c1-0.8,2.9-2.2,5.8-4c0.1,0,0.2-0.1,0.3-0.1l0.2-0.1c0.1,0,1.9-1.2,4.9-2.9c7-3.6,17-7.5,29.8-9.6   c1.3-0.1,2.5-0.1,3.8-0.1v-0.5h0.1l-0.1-0.3v-0.2c0,0,0,0-0.1,0l-0.1-0.1c-0.1-0.2-2.2-5.1-13.8-4.8c-0.1,0-12.6-1.1-19.1,10.9   h-20.7h-0.1h-0.1c-0.5,0.1-2.2-0.9-3.6-6.4v-3.1c0-0.7,0-1.3-0.1-2V59.7c0-0.3,0.5-6.4,8.7-6.4h66.6c0.3,0,27.7,3.4,28.9,32.8V146   c0,0.1-0.1,2.6,1,3.8c0.4,0.5,0.9,0.7,1.5,0.7c0.1,0,0.8,0.1,1.4-0.5c0.7-0.7,1.1-1.9,1.1-3.5V76v-0.4l-0.4-0.1   c-0.3,0-7.3-1.3-7.5-12.7c0,0-0.2-3.8,2.1-6.3c1.4-1.5,3.5-2.2,6.1-2.2h45.2c0.3,0,7.7,0.6,7.9,9.1c0,0.4,0.8,10.4-6.5,11.1   l-1.5,0.1v74v0.4l0.4,0.1c0.3,0.1,6.3,1.5,6.4,10.9c0,0,0,4.1-2.4,6.5c-1.2,1.2-2.9,1.8-5,1.8h-90.1c-0.5-0.2-4.2-1.5-5-4.7   l-0.1-0.6l-0.6,0.3c-0.1,0.1-9.5,5.1-25.9,5.1c-0.1,0-0.2,0-0.3,0c-0.2,0-15.7,0.9-29.7-10.2l-0.9-0.7l0.1,1.2   c0,0.4,0.8,9.6-9.6,10.8h-45.7c-0.7-0.2-5.6-2.1-5.6-9.1c0-0.4-0.8-9.4,6.2-10.3l0.4-0.1V87.6c0-0.2-0.6-4.1-8.5-4.1   c-0.1,0-0.2,0-0.3,0c-0.3,0-6.5-0.3-9.5,2.5c-1,0.9-1.5,2.1-1.5,3.5V148v1.5l0.4,0.1c0.3,0.1,7.7,1.5,7.7,9.5   c0,8.3-0.9,10.5-7.7,10.6h-48.1c-0.3,0-6.3-1.1-6.5-9.6c0-0.3-1-7.9,8.9-11.1l0.3-0.1V88.8c0-0.2-0.7-5.6-9.9-5.6   c-0.4,0-11,0-11.1,6.8v56.6v1.6l0.3,0.1c0.3,0.1,7,3,6.8,11.2c0,0.1,0.5,5.1-2,8c-1,1.2-2.5,1.8-4.2,1.9h-108c0,0-4.4-0.9-4.5-7.3   V152c0,0,0.5-4,3.2-3.8c0.1,0,1.8,0.3,3.4-0.9c1.7-1.3,2.6-3.9,2.7-7.6v-109l-0.1-1.9H16c0,0-3.3,0-5.8-2.5C8,23.9,7,20.8,7,16.7   C7,16.3,6.3,7,17.7,5.8h0.1V6h49.9C68.4,6,75.8,6.7,76.1,15.3z"></path>
	<path class="st0" d="M67.4,142.2c0,5.2,3.8,4.9,3.8,4.9c3.3,0.1,2.8-5.9,2.8-5.9l-0.4-64.7l-6.4-4.2L67.4,142.2z"></path>
</g>
</svg>